<?xml version="1.0" encoding="utf-8"?>
<!-- Generator: Adobe Illustrator 23.0.5, SVG Export Plug-In . SVG Version: 6.00 Build 0)  -->
<svg version="1.1" id="Layer_1" xmlns="http://www.w3.org/2000/svg" xmlns:xlink="http://www.w3.org/1999/xlink" x="0px" y="0px"
	 viewBox="0 0 793 767" style="enable-background:new 0 0 793 767;" xml:space="preserve">
<style type="text/css">
	.st0{opacity:0.4;}
	.st1{fill-rule:evenodd;clip-rule:evenodd;fill:url(#SVGID_1_);}
	.st2{fill-rule:evenodd;clip-rule:evenodd;fill:url(#SVGID_2_);}
	.st3{fill-rule:evenodd;clip-rule:evenodd;fill:url(#SVGID_3_);}
</style>
<g class="st0">
	<linearGradient id="SVGID_1_" gradientUnits="userSpaceOnUse" x1="266.3319" y1="533.8135" x2="792.177" y2="533.8135">
		<stop  offset="5.617999e-03" style="stop-color:#E4E5E6"/>
		<stop  offset="0.2528" style="stop-color:#F7F3E2"/>
		<stop  offset="0.6011" style="stop-color:#EBEBEC"/>
		<stop  offset="0.8708" style="stop-color:#FFFEF0"/>
		<stop  offset="1" style="stop-color:#EEEBDE"/>
	</linearGradient>
	<path class="st1" d="M557.8,543.4c-17-6.6-31.4-16.1-43-28c-11.6-11.8-20.5-25.8-27.7-41.1c-5.7-12.1-10.5-24.7-15.2-37
		c0.3,0.1,0.6,0.2,0.9,0.3c10.6,18.7,20.8,36,33.3,51c6.2,7.5,12.9,14.3,20.3,20.5c7.4,6.2,15.3,11.6,23.8,16.1
		c8.6,4.7,17.7,8.3,27.5,11.3c10,2.9,20.3,4.9,30.7,5.9c21.5,2.3,44.4,0.6,67.6-3.9c25.9-4.9,52.8-13.7,78.4-23.4
		c-22.8,10.5-48.7,21.7-75.3,29c-21.3,5.9-43.2,9.3-63.9,9.3C594.2,553.3,574.8,550,557.8,543.4L557.8,543.4z M467.7,426.3
		c0.9,0.2,1.7,0,2.2-0.5c1.7-1.6,0.4-5.7-3.1-9.3c-1.6-1.6-3.2-2.8-4.7-3.6c-1-2.4-2.2-4.9-3.3-7.2c2,1.4,3.9,2.9,5.6,4.6l0.7-0.7
		c-3.1-3-5.5-6.2-6.9-8.9c-1.4-2.6-1.8-4.7-1-5.9c1-1,3.1-1,5.9-0.2c2.9,0.9,6.5,2.6,10,5.1l0.5-0.8c-7-5-11.5-10.9-10.1-13.3
		c0.7-1.2,2.8-1.6,5.9-1.1c2.9,0.4,6.7,1.5,10.6,3.4l0.4-0.9c-3.9-1.9-7.1-4.2-9.3-6.3c-2.3-2.1-3.3-4-2.8-5.3
		c0.9-2.4,7.4-2.7,15-0.8l1.6,0.5l0.3-1l-1.7-0.5c-3.7-1.3-6.9-3-9.1-4.5c-2.1-1.6-3.3-3.1-3.1-4.4c0.4-1.4,2.2-2.3,5.1-2.8
		c2.9-0.5,6.9-0.6,11.1-0.1l0.2,0l0.1-1l-0.2,0c-8.5-1.3-14.9-4.4-14.8-7c0.1-2.7,7.1-5.1,15.7-5.4l0-1c-2.8,0.1-5.6-0.1-8.4-0.6
		c2.7-1.1,5.1-2.2,7.7-3.3c1.7,0.6,4,0.9,6.6,0.7c4.9-0.3,8.7-2.4,8.5-4.8c-0.1-0.9-0.9-1.6-2-2.2c2.7-1.4,5.4-2.7,8-4.1
		c3,1,5.1,2.8,5.4,5.1c0.1,2.3-1.4,4.5-4.1,6.1c-2.8,1.6-6.7,2.6-11,2.7l0,1.1c8.7-0.3,15.7,3.2,15.5,7.9c-0.2,4.6-7.6,7.4-16,6.3
		l-0.2,0l-0.1,1.1l0.2,0c4.2,0.6,7.9,2,10.4,3.8c2.5,1.9,3.9,4.2,3.4,6.4c-0.4,2.1-2.4,3.6-5.2,4.3c-2.8,0.7-6.3,0.6-10.1-0.3
		l-1.6-0.5l-0.4,1.1l1.7,0.5c1.4,0.5,2.8,1.1,4.1,1.9l0.1,0.1l0.1,0c2.4,1.4,4.3,3.1,5.5,4.8c1.1,1.7,1.4,3.5,0.9,5.1
		c-1.3,3.1-5.6,4.3-10.9,3.1l-0.2-0.1l0,0c-2-0.4-4.1-1.2-6.3-2.2l-0.5,1c3.9,1.9,7,4.4,8.9,7c1.8,2.6,2.4,5.3,1.2,7.3
		c-2.4,4.1-10.3,3.1-17.3-1.9l-0.6,0.9c3.5,2.5,6.2,5.4,7.6,8.3c1.4,2.8,1.6,5.7,0.1,7.4c-1.4,1.8-4.2,2.2-7.2,1.3
		c-3.1-0.8-6.4-2.9-9.5-5.9l-0.8,0.8c6.2,5.9,8.7,13.6,5.2,16.7c-1.5,1.4-3.9,1.4-6.3,0.5C470,432.3,468.8,429.3,467.7,426.3
		L467.7,426.3z M454.5,397.2c-0.1-2.1-1.9-5.3-4.9-8.5l-0.4-0.7c5.5,3.6,10.4,4.6,11.9,2.6c1.5-2.2-1.5-6.7-7-10.7
		c3.2,1.4,5.9,2.2,8.2,2.4c1.1,0.1,2.1,0,2.9-0.2c0.7-0.3,1.3-0.7,1.5-1.3c0.6-1.1-0.1-2.8-1.6-4.4c-1.5-1.7-3.9-3.4-7-5
		c3.3,0.9,6.2,1.3,8.5,1.1c2.3-0.2,3.7-1,4.1-2.2c0.4-1.2-0.6-2.7-2.2-4c-1.7-1.4-4.4-2.7-7.6-3.7c6.7,0.7,11.7-0.5,12-3.1
		c0.3-2.6-4.4-5.1-11.1-6.1c5.6-0.3,9.6-1.6,11.2-3.6c1.8-0.7,3.6-1.4,5.4-2.1c1.1,0.2,2.4,0.4,3.7,0.6c-6.7,1.2-11.5,3.3-11.6,5.6
		c-0.1,2.4,4.4,4.9,11,6.8c-3.3,0-6.4,0.4-8.6,1c-1.1,0.3-2,0.7-2.6,1.1c-0.7,0.4-1.1,0.9-1.2,1.5c-0.2,1.2,0.7,2.5,2.3,4
		c1.7,1.5,4.3,3,7.3,4.5c-6.7-0.9-11.7-0.4-12.6,1.8c-0.9,2.2,2.7,6.2,8.3,10.1c-6.5-2-11.8-2.4-13-0.3c-1.2,2.1,1.6,6.5,6.6,11.3
		c-3-1.5-5.9-2.6-8.1-3c-2.2-0.4-3.8-0.3-4.7,0.7c-0.4,0.5-0.5,1.1-0.4,2c0,0.8,0.3,1.7,0.7,2.8c0.9,2.1,2.5,4.8,4.5,7.5
		c-0.7-0.5-1.4-1-2.1-1.4C456.9,401.8,455.7,399.4,454.5,397.2L454.5,397.2z M445,381.6c2.2,1.2,4.1,1.7,4.5,0.9
		c0.7-1.2-1.9-4.1-6.2-6.8c-1.6-1-3.3-2-5.1-2.7c-1.2-1.4-2.6-2.9-3.9-4.2c1.5,0.8,3,1.6,4.5,2.5c0,0,0.3-0.4,0.3-0.4
		c-2.7-1.6-5.3-3.3-7.9-5.1c-1.6-1.4-3-2.7-4.7-4.1c-0.1-0.2-0.1-0.3-0.1-0.4c0.3-0.4,2-0.2,4.8,0.5c3.6,1,7.1,2.1,10.6,3.5l0.1-0.5
		c-8-3.2-14.3-6.5-14-7.4c0.1-0.1,0.2-0.3,0.6-0.3c1.6,0.1,3.2,0.2,4.9,0.2c2.3,0.3,5.3,0.7,8.5,1.3l1.7,0.4l0.1-0.5l-1.7-0.3
		c-1.3-0.3-2.6-0.6-3.8-1c2-0.1,3.8-0.2,5.7-0.4c1.5,0.5,3.6,1.1,6,1.5c4.8,0.9,9,0.6,9.1-0.8c0.1-0.9-1.7-1.9-4.4-2.5
		c1.8-0.4,3.6-0.8,5.5-1.3c3.1,0.5,5.8,1.2,7.7,2.1c1.9,0.9,2.8,2.1,2.7,3.2c-0.4,2.6-6.7,3.5-14.4,2l-1.7-0.4l-0.1,0.6l1.7,0.4
		c3.8,0.9,7.1,2.2,9.4,3.6c2.1,1.4,3.4,3,3,4.2c-0.9,2.8-8.2,2.4-16.2-0.8l-0.2,0.6c4,1.6,7.5,3.5,9.7,5.3c2.3,1.9,3.5,3.8,2.8,5.1
		c-0.3,0.6-1,1.1-1.9,1.2c-1,0.1-2.3,0.1-3.7-0.2c-2.9-0.6-6.5-2.1-10.2-4.3c0,0-0.3,0.5-0.3,0.5c7.4,4.3,12.4,9.9,10.7,12.3
		c-0.5,1-2.1,1-4,0.6c-1.9-0.4-4.2-1.6-6.8-3.2C447.3,384.9,446.1,383.2,445,381.6L445,381.6z M433.5,367.8L433.5,367.8L433.5,367.8
		L433.5,367.8L433.5,367.8z M420.7,357.5c-1.3-0.8-2.5-1.5-3.9-2.3c1.4,0.3,2.9,0.7,4.4,1c1.4,0.2,2.9,0.5,4.5,0.6
		c0.1,0.8,4.3,3.1,10.2,5.9c-3-0.9-5.6-1.7-7.7-2.2c-2.1-0.5-3.2-0.6-3.8-0.4C423.3,359.2,422,358.3,420.7,357.5z M436.9,357.2
		l0.3,0.1l-0.5-0.1L436.9,357.2L436.9,357.2z M529.3,323c6.1-3,12.3-6,18.6-8.6c15.5-6.5,31.4-10.9,47.8-11.9
		c8.2-0.5,16.6-0.1,25.1,1.2c8.4,1.3,16.9,3.6,25.5,6.9c16.8,6.5,33.8,17.1,49.2,31.1c15.4,14,29.6,31.3,41.4,50.2
		c15,23.5,26.7,49.3,36.7,72.6C761,440,747,415.3,731.1,394.1c-14.3-19.1-30.6-36-48-48.8c-8.8-6.4-17.7-11.9-27-16.3
		c-9-4.3-18.4-7.7-28-10.1c-9.4-2.3-19-3.6-28.5-3.9c-9.6-0.3-19.1,0.3-28.7,1.8c-19.2,2.8-38.7,8.9-58.9,15.8
		c-0.2-0.1-0.5-0.2-0.8-0.3C517.2,329.2,523.2,326,529.3,323L529.3,323z M572.4,335.1c20.1-0.6,42,1.4,65.1,8.9
		c22,7.1,42.8,18.7,61.8,34c18.8,15.2,35.5,34.1,49.5,54c5,7.1,9.5,14.2,13.9,21.1c-15.9-20.9-39.1-44.1-66.5-61.9
		c-13.3-8.6-27.7-16.3-43.4-22.6c-15.5-6.3-31.7-11-48-14.2c-32.4-6.3-64.1-5.9-89.7-3.2c-2-1.8-5.2-3.1-9-3.7
		c4.3-0.9,8-2.8,9.7-5.2C533.4,338.9,552.2,335.7,572.4,335.1L572.4,335.1z M512.8,333c20.1-6.7,39.4-12.6,58.5-15.2
		c19-2.7,38.2-2.2,56.9,2.6c4.8,1.2,9.5,2.6,14.1,4.3c4.7,1.7,9.3,3.7,13.8,5.9c9.2,4.4,18,9.9,26.7,16.4
		c17.2,12.9,33.3,29.6,47.5,48.7c15.9,21.3,29.9,46.2,42.4,70.9c-3.3-5.8-6.8-11.7-10.7-17.8c-3.9-6.1-7.8-12.2-12.2-18.3
		c-14-19.8-30.9-38.7-49.8-53.9c-19.1-15.3-40-26.8-62.1-33.8c-23-7.4-44.9-9.2-64.9-8.6c-20.1,0.7-38.9,3.9-56.6,7.5
		c0.6-1.1,0.9-2.3,0.8-3.4C516.7,336,515.2,334.2,512.8,333L512.8,333z M744.6,443.1c-14.5-13.6-32.4-27.2-51.9-38.6
		c-23.8-13.8-45.6-22.2-65.3-28c-19.6-5.7-36.8-8.7-51.8-10.6c-30-3.6-51.2-3.1-65.7-2.7c2.2-0.6,4.1-1.5,5.5-2.6
		c1.3-1.2,2-2.6,2.2-4.2c0.2-1.6-0.7-3.2-1.9-4.5c25.4-2.5,57-2.7,89.2,3.8c16.3,3.2,32.2,8.1,47.6,14.4c15.4,6.3,29.9,14.1,43,22.7
		c8.7,5.8,17.1,12.1,25.2,18.9c7.6,6.5,14.9,13.4,21.8,20.7c6.3,6.7,12.2,13.7,17.9,20.9c5.3,6.8,9.8,13.3,13.6,19.3l4.6,8.1
		C770.5,470.2,759.4,456.7,744.6,443.1L744.6,443.1z M733.5,471.6c-22.3-10-49.3-21.3-77.2-32.1c-55.7-21.6-115.1-40.9-146-49.9
		l0-0.2c23.8,4.3,51.1,9.2,79.3,15.9c28.1,6.6,56.9,15.1,83.2,25.5c26.3,10.3,50.2,22.6,69.3,34.5c19.1,11.8,33.2,23,41.1,29.7
		C773.6,490.3,755.9,481.6,733.5,471.6z M510.4,390.3c30,8.9,87.1,27.8,141.5,49.1c27.2,10.6,53.7,21.8,76.1,31.9
		c22.4,10.1,40.6,19,51.5,24.4c-11.2-3.1-30.3-8.7-53.3-16.2c-23.1-7.5-50.2-17.1-77.5-27.5c-54.6-20.9-110-45.6-138.9-59.5
		c0.1-0.2,0.2-0.4,0.3-0.6C510.2,391.3,510.3,390.8,510.4,390.3L510.4,390.3z M636.5,407c25.5,8.7,50.8,20.1,72.9,32.8
		c22,12.5,41.1,26.3,54.9,37.8c-17.9-12.9-44.2-28.6-74.6-41.7c-25.5-11.1-56.7-21.3-88.3-28.9c-31.6-7.7-63.9-13.4-91.2-18.2
		c-0.4-2.7-2.9-5.5-6.2-7.7C533.3,382.2,585.3,389.3,636.5,407L636.5,407z M515.2,374.4c0.1-0.3,0.1-0.5,0.1-0.8
		c25.5,0.9,56.5,3.4,87.7,10.2c15.6,3.4,31.2,7.8,46.1,13.2c14.8,5.4,28.9,11.7,41.7,18.6c10.3,5.5,20.3,11.6,29.9,18.3
		c9.3,6.4,18,13.2,25.6,19.8c15.3,13.2,27.1,26.2,34.4,35.2c-8.6-8-22.3-19.7-39.8-31.7c-17.3-12-38.5-24.4-61.3-34.8
		c-25.7-11.7-48.5-19.2-68.4-24.7c-19.9-5.4-36.8-8.7-51-11.1c-14.2-2.4-25.8-3.8-35.2-4.7c-9.5-1-16.5-1.3-22.1-1.5l-0.8-0.4
		c3.4,0.4,6.4,0,8.7-1C513.2,378,514.8,376.4,515.2,374.4L515.2,374.4z M505.7,364c24.6-1,57.5-0.3,91,6.3
		c16.8,3.3,33.8,8,50.1,14.1c16.1,6.1,31.6,13.5,45.4,21.7c17.9,10.5,34.4,23,48.1,35.5c13.9,12.6,24.9,25.2,33.2,35.6
		c-8.6-9.4-19.9-20.6-33.9-31.7c-14-11.1-30.1-22.1-48.1-31.5c-25.5-13.6-56.8-24.8-88.1-31.3c-31.3-6.6-62.5-9-88-9.8
		C515.1,369.3,511.2,365.9,505.7,364L505.7,364z M732.3,493.4c-21.9-4-47.9-11-74.4-21.1c-26.6-10-53.6-23.1-79-37.2
		c-12.7-7-24.9-14.3-36.6-21.4c-11.7-7.1-22.8-14.1-33-20.5l0.1-0.1c29.7,14.6,87.5,40.7,143.5,62.2c28,10.8,55.5,20.6,78.5,28.1
		c23,7.6,41.3,12.9,50.8,15.6C772.3,498.7,754.3,497.4,732.3,493.4L732.3,493.4z M499.8,395.9c3.9,0.5,7.1-0.4,9-2.2
		c23.5,14.9,51,32.4,79.6,48c28.6,15.7,58.3,29.1,84.6,38.1c31.4,11,61.2,16.9,83.1,19.5c-17.8-0.8-40.6-3.4-65.3-9
		c-12.7-2.8-25.2-6.3-37.6-10.3c-12.8-4.2-25.4-8.9-37.7-14.3c-24.7-10.6-47.9-23.2-67.8-35.7C527.9,417.5,511.3,405.5,499.8,395.9
		L499.8,395.9z M726.9,504.7c-10.1-0.3-20.9-1.1-32.1-2.6c-11.6-1.6-23.1-3.8-34.4-6.7c-28-7-58.8-19.6-86.3-35.6
		c-27.6-15.9-52.6-35.1-71.9-51.6c1-1.8,0.7-4.1-0.3-6.4c-1.1-2.3-3.2-4.6-5.9-6.7c0.9,0.2,1.8,0.4,2.7,0.6c3.8,3.2,8.2,6.7,13,10.4
		c5.2,4,10.5,7.8,15.9,11.5c12.5,8.7,25.4,16.9,38.7,24.6c28.1,16.4,60.5,31.1,90.3,40.5c23.8,7.7,47.6,12.8,68.7,15.6
		c20.9,2.8,38.8,3.4,50.6,3.3C764.2,503.5,747.2,505.2,726.9,504.7L726.9,504.7z M490.1,410.4c2.5,0.9,5,1.2,7,0.9
		c2.1-0.3,3.6-1.2,4.7-2.5c19.5,16.7,44.3,36,71.9,52.1c27.5,16.2,58,29,86.1,36.1c19.4,5,39,8,56.6,9.1c17.7,1.2,33.7,0.6,46.2-0.6
		c-12.9,2.3-29.8,4-48.2,4c-18.7,0-38.9-1.8-59.4-6.2c-27.4-5.8-49.9-14.5-68.5-23.5c-18.7-9.1-33.7-18.7-46.2-27.4
		c-12.5-8.8-22.4-16.9-30.6-24C503,422.6,496.4,416.6,490.1,410.4L490.1,410.4z M759.8,509.4c-6.7,1.8-14.6,3.5-23,5
		c-9,1.6-18,2.7-27.1,3.4c-9.6,0.7-19.6,1-29.9,0.6c-10.3-0.4-20.7-1.3-31.2-3c-15.2-2.4-31.2-6.4-46.7-12
		c-15.5-5.5-30.8-12.9-44.7-21.2c-28.2-16.7-51.6-38.1-68.8-56.9c1.4-0.3,2.4-1,3.3-1.9c1.4-1.6,1.6-3.9,0.8-6.4
		c-0.7-2.5-2.3-5.1-4.8-7.6l1,0.4c17.8,17.6,42.4,39.1,71.7,57c14.6,8.9,30.3,16.9,46.2,23.4c16,6.5,32.4,11.4,47.8,14.7
		c22.2,4.9,44.3,6.7,64.2,6.5c19.8-0.2,37.3-2.5,50-4.9L759.8,509.4L759.8,509.4z M480.9,432.1c10.8,14.6,22.6,29.8,37.3,44
		c14.7,14.2,32.1,27.5,54.5,37.7c10.4,4.7,21.5,8.6,33,11.4c11.4,2.7,23.5,4.6,35.5,5.3c24.3,1.6,49.1-1.1,72.7-6.3
		c14.7-3.2,28.3-7.2,41-11.2c-25.7,9.8-52.6,18.8-78.6,23.8c-23.1,4.5-45.9,6.3-67.2,4.2c-10.5-0.9-21-3-30.6-5.7
		c-9.8-2.9-18.9-6.5-27.4-11c-17.2-9.1-31.6-21.3-44-36.1c-12.5-14.8-22.8-31.9-33.4-50.4c2,0.3,4.1,0.1,5.3-1.2
		C480.2,435.4,480.8,433.9,480.9,432.1L480.9,432.1z M477.2,422.1c3.7,2.5,7.3,3.6,10.3,3.3c17.2,19.1,40.5,40.7,68.8,57.7
		c14,8.4,29.2,15.8,44.8,21.6c15.5,5.7,31.6,9.9,46.9,12.3c16.2,2.7,32.3,3.6,47.8,3.4c15.2-0.4,30-1.9,42.7-4.3
		c-7.7,2.3-15.9,4.4-24.3,6.3c-11.7,2.7-23.9,4.6-36,5.9c-12.3,1.1-24.4,1.5-36.6,0.7c-24.1-1.3-47.6-7-68.4-16.3
		c-22.5-10.2-40-23.4-54.8-37.6c-14.8-14.2-26.6-29.3-37.6-44C480.6,428.2,479.4,425.1,477.2,422.1L477.2,422.1z M736.4,524.9
		c8.9-4,17.6-7.9,26.1-11.7c8.2-3.8,16.1-7.3,23.6-10.2l4.6-1.8v0l0,0v0l1.5-0.6l-0.8-1.5c0-0.1-0.8-1.6-2.1-4.2
		c-14.1-28.8-28.4-69.4-51.4-104.6c-5.9-9.4-12.6-18.5-19.5-27c-7.1-8.5-14.4-16.3-22.3-23.3c-7.7-7-16-13.1-24.2-18.4
		c-8.4-5.2-16.8-9.4-25.4-12.7c-8.6-3.2-17.1-5.5-25.6-6.8c-8.4-1.2-16.8-1.6-25.2-1.1c-16.5,1-32.5,5.6-48.1,12.2
		c-22.8,9.7-43.9,22.9-65.9,32.2c-22,9.3-45.1,14.3-66,8.9l-0.2,0l0.1,0.1c9.5,5,17.7,12.5,24.8,21.5c7.1,9,12.9,19.2,18,30.1
		c10.3,21.8,17.3,45.7,27.8,68.2c7.2,15.4,16,29.6,27.6,41.5c11.6,12,26,21.7,43.1,28.5c17,6.7,36.6,10.2,57.5,10.3
		c20.8,0.1,42.8-3.3,64.3-9.1C698.7,540.3,718.2,532.8,736.4,524.9L736.4,524.9z M514.8,569.7c-0.4,9.2-2,18.3-4.3,27.9
		c-2.4,9.3-5.7,19.1-9.9,28.4c-8.4,19-20.2,37.5-34.2,54.6c-17.4,21.4-38.1,40.6-57,57.2c19.2-19.4,38.2-40.5,53.1-62.2
		c6.8-9.6,12.8-19.8,18-29.8c5.1-10.3,9.5-20.3,12.9-30.7c6.8-20.4,9.4-41,7.9-60.3c-1.5-19.4-7-37.8-15.7-55.2
		c-8.6-17.4-20.4-34.1-33.1-51.3c0-0.3,0-0.5,0-0.8c9.6,9.7,19.3,19.2,28.2,29.7c10.9,12.8,20,26.5,26,41.9
		C512.9,534.5,515.8,551.6,514.8,569.7L514.8,569.7z M434.3,704.5c7.2-9.6,13.8-20.1,19.8-30.7c5.9-10.9,11.2-21.7,15.3-33.2
		c2.1-5.6,3.9-11.3,5.5-17.1c1.6-5.8,2.9-11.6,3.9-17.4c2.1-11.5,3.1-23.3,3-34.8c-0.2-24.2-5.1-45.5-11.9-64.4
		c-6.8-19-15.7-35.8-24.5-51.6c1.2,0.2,2.5,0.3,3.5-0.3c1.9-1,3.2-2.9,3.6-5.6c12.5,17.1,24,33.8,32.4,51.1
		c8.4,17.3,13.9,35.7,15.1,55c0.6,9.6,0.4,19.6-1.1,29.6c-0.7,5.1-1.6,10.2-2.8,15.2c-1.2,5.1-2.7,10.2-4.3,15.2
		c-6.8,20.3-17.4,40.7-30.9,60c-15,21.7-34.2,42.7-53.6,62.2C416.2,727.4,425.4,716.6,434.3,704.5L434.3,704.5z M402.1,740.5
		c-2.1,2.3-4.2,4.6-6.2,6.8c3.7-5.3,7.8-11.7,12.1-19c4.6-8,8.9-16.2,12.8-24.6c4.1-8.9,8-18.9,11.5-29.1
		c3.4-10.2,6.4-21.1,8.7-32.2c5.6-26.7,6.6-50.3,6-70.6c-0.7-20.3-3.2-37.8-6.1-52.6c-6-29.8-13-49.4-17.9-63.3c2.5,4,5.9,5.9,9,5.2
		c1.6-0.5,2.9-1.7,3.8-3.3c10.3,23.4,20.2,53.4,24,86c1.9,16.3,2.4,33.2,1.2,49.7c-1.1,16.6-4,32.8-8,47.8
		c-5.4,20.4-13.4,39.9-22.5,56.8c-4.3,8.1-9,15.9-14.1,23.4C411.3,728.6,406.5,735.1,402.1,740.5L402.1,740.5z M406.3,704.5
		c6-20.4,11-44.2,13.7-69c3-28.1,2.9-52.2,1.9-72.7c-1.1-20.5-3.2-37.6-5.4-51.9c-2.2-14.3-4.5-25.7-6.5-34.9
		c-2.1-9.2-3.9-16.3-5.5-21.6l0.2-0.9c0.7,3.3,2,6.1,3.6,8.1c1.6,1.9,3.6,2.9,5.7,2.7c0.3,0,0.5-0.1,0.8-0.1
		c7.1,24.3,14.5,54.8,17.8,86.5c1.7,15.8,2.4,32,1.9,47.8c-0.4,15.8-2,31.3-4.5,45.4c-2,11.5-4.6,22.9-7.9,34.2
		c-3,10.3-6.6,20.4-10.7,30.3c-7.7,18.8-16.3,33.6-22.5,43.5C393.6,741.3,400.4,724.6,406.3,704.5L406.3,704.5z M383.6,756.3
		c1.5-10.6,4.2-30.1,6.6-54.5c2.5-24.4,4.8-53.5,6.2-83.4c3-59.7,2.7-122.1,1.5-154l0.2-0.1c1.6,11.8,3.4,24.8,5.2,38.3
		c1.7,13.5,3.3,27.5,4.6,41.9c2.5,28.8,3.5,58.7,1.9,87c-1.5,28.3-5.7,54.8-10.9,76.5C393.7,729.8,387.5,746.9,383.6,756.3
		L383.6,756.3z M380.5,697.1c-0.1-24.3,0.5-52.9,1.8-82.1c2.7-58.3,8.7-118.6,12.9-150.4c0.7,0.2,1.5,0.2,2.2,0
		c1,31.2,1,91.3-2.2,149.6c-1.5,29.2-3.8,57.9-6.4,82.2c-2.5,24.4-5.3,44.4-7,56.4C381.3,741.3,380.6,721.4,380.5,697.1L380.5,697.1
		z M379.6,756.5c-2.8-9.7-7.3-27-10.3-49.2c-3.1-22.2-4.6-49-3.3-77.3c1.2-28.3,5.1-58,10.6-86.5c5.4-28.5,12.1-55.6,17.8-79.1
		l0.1,0c-4.5,32.8-11.1,95.8-14,155.6c-1.5,29.9-2.1,59.1-2.1,83.2C378.5,727.5,379.2,746.6,379.6,756.5z M371.2,731.7
		c-4.8-17.1-9.5-39.9-11.9-64.8c-2.5-25.1-2.6-52.5-0.2-79.2c4.6-53.5,19.1-103.8,29.9-131.4c0.8,3.7,2.5,6.8,4.8,7.9
		c-6.7,26.9-14.7,58.5-20.5,90.5c-5.9,31.9-9.3,64.4-9.6,92.1C363.2,679.8,366.8,710.2,371.2,731.7L371.2,731.7z M362.2,702
		c1.8,9.5,3.9,18.9,6.4,28.3c1.9,7,4,14,6.3,20.9c-5.2-10.3-12.2-26.3-18-45.6c-2.9-9.6-5.5-20.3-7.6-31.4
		c-2.1-11.1-3.6-22.7-4.4-34.7c-1-14.4-1-29.9,0.1-45.6c1.2-15.8,3.5-31.8,6.8-47.4c6.5-31.3,16.8-60.5,26.4-84.2
		c2,0.4,4.1-0.4,5.9-2.3c1.8-1.8,3.3-4.4,4.4-7.6c0,0.9,0.1,1.8,0.3,2.7c-7.3,18.3-16.2,46.8-22.9,78.5
		c-6.8,31.8-10.6,67.2-10.2,98.3C355.8,657,358.3,681.3,362.2,702L362.2,702z M348.4,695c-5.8-17.6-10.4-37.7-12.6-58.3
		c-3-28-1.8-51.8,1-72.4c2.8-20.6,7.2-37.7,11.6-52.3c9.1-29,18-47.9,24.1-60.6c0,2.8,0.4,5,1.3,6.9c0.9,1.8,2.2,3.3,3.8,3.7
		c-9.7,23.7-20.2,53-26.9,84.2c-3.4,15.6-5.8,31.6-7,47.4c-1.3,15.8-1.3,31.2-0.4,45.6c1.2,20.2,4.6,39.4,9,56.7
		c4.4,17.2,10,32.1,15,43.8C361.1,727.9,354.1,712.9,348.4,695z M362.7,738.3c-3.8-6-7.9-12.7-12-20.3c-4.3-8.1-8.2-16.4-11.7-24.8
		c-3.8-9.3-7.1-18.7-9.9-28.3c-2.8-9.9-5.1-20.2-6.8-30.6c-2.5-15.3-3.6-31.6-3.1-48.2c0.5-16.6,2.6-33.1,6.2-49.1
		c7.1-31.9,19.9-60.6,32.4-82.8c0.7,1.2,1.6,2.1,2.8,2.6c2,0.7,4.2,0.3,6.3-1.1c2.1-1.5,4.1-3.9,5.7-6.9l-0.1,1.1
		c-11.1,22.2-23.8,52.4-31.6,85.6c-3.9,16.6-6.6,33.9-7.8,51.1c-1.2,17.2-0.7,34.1,0.9,50c2.4,22.5,7.4,44.3,13.9,63
		c6.4,18.9,14,34.6,20.3,46.1C366.4,743.4,364.6,740.9,362.7,738.3L362.7,738.3z M310.8,667.2c-11.4-20.6-20-42-24.7-62.8
		c-2.3-10.5-3.7-20.7-4-30.9c-0.4-9.8,0.3-19.7,1.9-29.4c1.6-9.4,4.2-18.6,7.6-27.5c3.4-8.8,7.7-17.3,12.7-25.4
		c10-16.3,23.1-31.5,37.1-47.1c0.3,2.2,1.3,3.7,2.8,4.7c1.3,0.9,3.1,0.9,4.8,0.4c-10.5,14.8-21.1,30.7-30,48.9
		c-4.4,9.1-8.4,18.8-11.6,29.4c-3.3,10.6-5.7,21.8-7.1,33.9c-2.6,23-0.7,46.7,5.3,70.4c6.1,23.4,16.3,46.5,28.5,67.3
		C342,712,350,724,357.8,734.7C340.5,713.3,323.6,690.4,310.8,667.2L310.8,667.2z M304.7,671.9c-12.2-18.4-22.2-38.3-28.5-58.1
		c-6.5-19.7-9.2-39.4-8.3-57.5c0.9-18.2,5.5-34.9,13-49.5c7.5-14.7,18-27.4,30.1-38.9c9.7-9.3,20-17.4,30.3-25.8l0,1
		c-14.3,15.7-27.6,30.9-37.8,47.3c-10.2,16.3-17.5,34-20.9,53c-1.7,9.5-2.4,19.5-2.1,29.6c0.3,10.2,1.6,20.5,3.9,31.1
		c4.6,21,13.1,42.5,24.6,63.3c12.7,23.1,29.4,46,46.6,67.5C338.5,716.3,319.9,695.2,304.7,671.9L304.7,671.9z M357.5,453.6
		c-12.8,22.3-25.9,51-33.1,83c-3.7,16.2-5.9,32.7-6.5,49.2c-0.6,16.7,0.5,32.9,2.9,48.4c4.9,32.3,16.6,62.8,29.1,85.9
		c-4.6-6.8-9.1-13.8-13.5-21.2c-12.3-20.9-22.6-43.7-28.8-67.1c-6.1-23.5-8.2-47.3-5.7-70.2c2.6-24.3,9.7-45.3,18.5-63.6
		c8.8-18.3,19.4-34.3,29.9-49.2c2.4-0.9,5-3.2,7.2-6.1C356.3,446.9,356.2,451,357.5,453.6L357.5,453.6z M410.2,481
		c2,9.6,3.9,20.4,5.6,32c3.3,23.2,5.5,49.7,5.2,76.7c-0.1,13.5-0.9,27.2-2.3,40.6c-1.3,13-3.3,26-5.9,38.9
		c-4.9,25-12,47.1-18.5,63.8c6.6-21,13.3-50.6,16.1-83.7c2.5-27.7,2.4-60.4-0.3-92.9c-2.6-32.5-7.3-64.8-11.3-92.3
		c2.4-1.4,4.3-4.2,5.3-8.3C406.2,462.7,408.2,471.3,410.2,481L410.2,481z M415.3,464c1.6-0.7,3-2.2,3.9-4.3c0.9-2.1,1.5-4.8,1.5-7.7
		c8.7,23.3,18.2,54.5,22.4,88.6c2.2,17,3,34.5,2.3,51.8c-0.6,16.8-2.7,33.5-6.2,49.9c-2.1,10-4.8,19.9-8,29.6
		c-3.1,9.5-6.7,18.7-10.4,27.1c-7.5,16.9-16,31.5-23.3,42.4c3.1-5.5,6.4-11.7,9.7-18.8c3.3-7.1,6.6-14.8,9.7-23.1
		c6.2-16.5,11.4-35.6,14.7-55.4c4.9-28.5,5.7-61.7,2-93.4C430,519,422.5,488.4,415.3,464L415.3,464z M450.7,496.7
		c-4.4-14.6-9.5-27.9-14.8-39.7c1.1-2.5,1.3-6,0.7-9.7c2.2,3.9,5.1,6.7,7.9,7.6c8.8,15.8,17.5,32.7,24.3,51.8
		c3.4,9.5,6.3,19.6,8.3,30.3c2.1,10.8,3.3,22.2,3.3,34.3c0,11.6-1,23.2-3.2,34.7c-2.1,11.7-5.4,23.1-9.6,34.5
		c-8.4,22.6-21,44.3-35.3,63.6c-5,6.7-10.2,13.3-15.6,19.7c7.3-10.7,14.7-23.5,21.3-37.3c3.3-7,6.3-14.3,9-21.8
		c2.8-7.6,5.2-15.3,7.2-23.2c2-7.7,3.7-15.5,5-23.4c1.3-8.2,2.2-16.4,2.8-24.7c1.1-16.5,0.5-33.6-1.5-50
		C458.6,527,455.1,511.3,450.7,496.7L450.7,496.7z M343,440.9c2.4-2,4.9-4,7.4-6c0.1,0.9,0.5,1.6,1.1,2c2,1.3,5.6-1.4,7.9-5.8
		c1-2,1.7-3.9,1.9-5.6c2-1.8,3.9-3.5,5.8-5.3c-0.7,2.3-1.5,4.5-2.6,6.7l0.9,0.4c1.9-3.9,4.2-7.1,6.2-9.2c2.1-2.2,4-3.3,5.3-2.7
		c1.4,0.4,1.9,2.6,2,5.6c0.1,3-0.5,6.9-1.7,11l0.9,0.3c1.2-4.1,3-7.6,4.7-10.1c1.7-2.5,3.3-3.7,4.7-3.5c0.7,0.1,1.2,0.7,1.7,1.7
		c0.5,0.9,0.8,2.1,1.1,3.5c0.5,2.9,0.6,7,0,11.2c0,0,1,0.1,1,0.1c0.6-4.3,1.7-8.1,3-10.8c1.3-2.6,2.7-4.3,4-4.2
		c1.3,0.2,2.4,1.6,3.4,4.1c0.9,2.6,1.7,6,1.9,9.9c0,0.6,0,1.1,0,1.7l1-0.1c0-0.6-0.1-1.2-0.1-1.7c0-3.9,0.6-7.4,1.4-9.9
		c0.8-2.5,1.9-4.3,3.2-4.3c1.4-0.1,2.8,1.3,4.3,4c1.4,2.6,2.8,6.2,3.5,10.4l0,0.2l1-0.2l0-0.2c-0.8-4.2-0.8-8.1-0.4-11
		c0.4-3,1.3-5,2.7-5.3c1.4-0.5,3.1,0.9,5,3.3c1.8,2.3,3.7,5.8,5.2,9.9l0.9-0.3c-1-2.6-1.6-5.4-2-8.1c1.8,2.1,3.6,4.2,5.5,6.3
		c0,1.8,0.4,4.1,1.3,6.5c1.8,4.5,5,7.6,7.2,6.6c0.8-0.4,1.3-1.3,1.5-2.5c2.1,2.1,4.2,4.3,6.3,6.4c0.1,3.3-1.1,5.7-3.1,6.7
		c-2.1,1-4.7,0-7-2c-2.3-2.1-4.5-5.6-5.9-9.6l-1,0.4c1.4,4.1,1.9,8,1.4,11.2c-0.5,3.1-2,5.3-4.3,6c-2.2,0.5-4.7-0.7-6.7-3
		c-2-2.5-3.6-6.1-4.4-10.3l0-0.2l-1.1,0.2l0,0.2c0.7,4.2,0.6,8.2-0.4,11.2c-1,2.9-2.8,5-5,5.2c-2.1,0.1-4.2-1.1-5.7-3.6
		c-1.5-2.5-2.6-5.9-2.9-9.8l0-1.7l-1.2,0.1c0,0.6,0,1.2,0.1,1.7c0,1.5-0.2,3-0.5,4.5l-0.1,0.1l0,0.1c-1.1,5.4-4,9.3-7.3,9
		c-3.3-0.1-5.7-4.1-6.3-9.4v-0.2l0,0.1c-0.2-2-0.2-4.3,0.1-6.6c0,0-1.1-0.1-1.1-0.1c-0.6,4.3-2,8-3.8,10.5c-0.9,1.3-2,2.3-3.1,2.9
		c-1.1,0.6-2.2,0.7-3.3,0.5c-2.2-0.4-3.8-2.8-4.4-5.8c-0.7-3.1-0.3-7.1,0.9-11.2l-1-0.4c-1.3,4.1-3.2,7.6-5.5,9.8
		c-2.3,2.3-4.8,3.1-6.9,2.3c-2.1-0.9-3.3-3.4-3.5-6.5c-0.1-3.2,0.8-7.1,2.7-11l-1-0.5c-3.7,7.8-10.2,12.4-14.2,10
		C343.8,445.6,342.9,443.6,343,440.9L343,440.9z M368.5,418.9c1.8-1.7,3.6-3.5,5.3-5.3c2.1-0.9,4.4-3.4,6.6-7.2l0.5-0.6
		c-1.6,6.2-1.2,11.3,1.2,12c2.5,0.7,5.7-3.4,7.8-9.9c-0.4,3.4-0.3,6.4,0.2,8.6c0.5,2.1,1.5,3.5,2.7,3.7c1.3,0.1,2.5-0.9,3.6-2.9
		c1.1-2,1.9-4.9,2.5-8.2c0.2,3.4,0.7,6.4,1.6,8.4c0.9,2,2,3.4,3.3,3.3c2.5,0,4.3-5,4.3-11.6c0.7,3.3,1.7,5.9,2.9,7.8
		c0.6,0.9,1.2,1.7,1.9,2.2c0.6,0.4,1.3,0.6,1.9,0.4c0.6-0.1,1.2-0.5,1.6-1.1c0.4-0.7,0.8-1.6,1-2.8c0.5-2.2,0.4-5.1-0.1-8.5
		c2,5,4.7,8.8,7,9.4l3.7,4.5c0.1,1.2,0.3,2.4,0.6,3.7c-1.6-3-3.3-5.5-4.9-7.1c-1.6-1.7-3.1-2.6-4.2-2.1c-1.2,0.2-2.1,1.7-2.6,4
		c-0.5,2.2-0.8,5.1-0.6,8.6c-2.3-6.4-5.1-10.9-7.4-10.6c-1.2,0-2.2,1.4-3,3.4c-0.8,2-1.5,4.9-1.9,8.2c-0.6-3.3-1.4-6.1-2.3-8.1
		c-0.9-2.1-2-3.1-3.2-3.3c-2.3-0.1-4.9,4.3-6.8,11c-0.1-7-1.3-11.9-3.6-12.5c-1.2-0.2-2.5,0.6-4,2.4c-1.5,1.8-3.1,4.3-4.5,7.4
		c0.5-3.4,0.6-6.4,0.3-8.6c-0.3-2.3-0.9-3.9-2-4.2c-1.1-0.5-2.6,0.1-4.4,1.7c-1.7,1.4-3.7,3.7-5.6,6.5
		C368.1,420.5,368.3,419.7,368.5,418.9L368.5,418.9z M385.6,399.9c-0.4,2.5-0.2,4.2,0.6,4.5c1.3,0.4,3.3-3.3,4.5-8
		c0.5-2.1,0.9-4.1,1-5.7c1-1.7,1.9-3.2,2.7-4.9c-0.3,1.7-0.6,3.3-1,5l0.5,0.1c0.6-3,1.4-6,2.4-9c0.8-1.8,1.6-3.9,2.3-5.8
		c0.1-0.2,0.2-0.2,0.4-0.2c0.5-0.1,0.7,1.9,0.9,4.7c0.1,2.8,0.2,6.7,0,11l0.5,0c0.2-3.7,0.6-7.4,1.1-11c0.5-2.9,0.9-4.4,1.4-4.6
		c0.2,0,0.3,0.2,0.5,0.5c0.4,1.6,0.8,3.1,1.3,4.6c0.5,2.3,1,5.3,1.4,8.6l0.2,1.7c0,0,0.5,0,0.5,0c-0.1-0.6-0.1-1.1-0.2-1.7
		c-0.1-1.4-0.2-2.7-0.3-3.9c0.7,1.7,1.4,3.5,2.2,5.3c-0.1,1.6,0.1,3.8,0.4,6.1c0.7,4.9,2.3,8.7,3.6,8.4c0.9-0.1,1.3-2.1,1-5
		c1,1.6,2,3.3,3.1,4.9c1.1,6.1,0.3,11.2-2,11.5c-0.6,0.1-1.3-0.1-2-0.7c-0.7-0.6-1.3-1.6-1.9-2.8c-1.2-2.4-2.1-5.7-2.6-9.6l-0.2-1.7
		c0,0-0.6,0-0.6,0c0.1,0.6,0.1,1.1,0.2,1.7c0.7,7.7-0.9,14.1-3.5,14.1c-1.4,0.2-2.6-1.8-3.4-4.6c-0.8-2.8-1-6.8-0.8-11.1l-0.6-0.1
		c-0.2,4.3-0.9,8.2-2,11c-1,2.8-2.5,4.3-3.8,4.2c-1.3-0.2-2.3-2.2-2.6-5c-0.3-3,0.1-6.9,1-11.1l-0.6-0.1c-1.8,8.5-5.4,14.8-8.2,14
		c-1-0.4-1.7-1.6-1.8-3.6c-0.1-2,0.2-4.6,1-7.5C383.3,403,384.5,401.4,385.6,399.9L385.6,399.9z M395.1,384.5L395.1,384.5
		L395.1,384.5L395.1,384.5L395.1,384.5z M405.6,384.7l0,0.3l-0.1-0.6L405.6,384.7L405.6,384.7z M400.5,369.3c0.3-1.5,0.6-3,0.9-4.5
		c0.1,1.6,0.2,2.9,0.4,4.5c0.2,1.5,0.4,3.1,0.7,4.5c-0.7,0.3-1.5,5.1-2.2,11.5c-0.1-6.3-0.3-10.9-0.9-11.6
		C399.8,372.2,400.2,370.8,400.5,369.3L400.5,369.3z M481.5,476.6c-16.2-18.9-35-34.9-50.6-53.1c-7.8-9.1-14.9-18.5-20.3-28.6
		c-5.3-10.1-8.6-20.6-9.1-31.3l0-0.2l0,0.2c-3.1,21.3-17.6,40.3-35,56.5c-17.4,16.3-37.8,30.2-55.9,47.2
		c-12.3,11.5-22.9,24.2-30.6,39c-7.6,14.6-12.4,31.4-13.4,49.6c-0.6,9.2,0,18.5,1.2,28.3c1.4,9.6,3.6,19.7,6.8,29.5
		c6.3,19.9,16.3,39.9,28.4,58.4c11.3,17.4,24.5,33.8,37.6,48.6c3.3,3.7,6.5,7.3,9.7,10.9c3.2,3.5,6.3,6.9,9.5,10.3
		c6.1,6.8,11.9,13.2,17,19.3c1.9,2.3,3,3.7,3.1,3.8l0,0l0,0l1,1.3l1.1-1.2c0.1-0.1,1.2-1.2,3.3-3.3c5.7-5.6,12.1-11.5,18.9-17.4
		c6.9-6.2,14-12.6,21.3-19.1c14.5-13.6,29.4-28.2,42.4-44.4c13.9-17.3,25.8-35.8,34.1-55c8.4-19.1,13.2-38.3,14-56.6
		c0.9-18.2-2.2-35.5-8.3-50.8C501.7,503.1,492.5,489.4,481.5,476.6L481.5,476.6z"/>
	<linearGradient id="SVGID_2_" gradientUnits="userSpaceOnUse" x1="0.6389" y1="266.4312" x2="413.7578" y2="266.4312">
		<stop  offset="5.617999e-03" style="stop-color:#E4E5E6"/>
		<stop  offset="0.2528" style="stop-color:#F7F3E2"/>
		<stop  offset="0.6011" style="stop-color:#EBEBEC"/>
		<stop  offset="0.8708" style="stop-color:#FFFEF0"/>
		<stop  offset="1" style="stop-color:#EEEBDE"/>
	</linearGradient>
	<path class="st2" d="M255,516.4c-7.6,3.9-16,7.2-24.7,9.5c-17.7,4.8-37.4,6-58.2,3.9c-20.7-2.2-42.2-7.9-62.9-16
		c-26-10.1-50.6-24-72.2-36.9c24.5,12.3,50.4,23.9,75.8,31.6c22.9,6.9,45.7,11.1,67.5,11c10.8,0.1,21.4-0.9,31.4-2.7
		c10.2-2,19.6-4.7,28.7-8.4c8.9-3.7,17.4-8.3,25.4-13.7c8-5.4,15.4-11.6,22.4-18.4c14-13.7,26-29.9,38.6-47.4
		c0.3-0.1,0.5-0.1,0.8-0.2c-6.1,12.1-12.3,24.5-19.5,36.1c-8.8,14.4-19,27.3-31.9,37.8C269.6,507.9,262.6,512.6,255,516.4L255,516.4
		z M23.6,467c12.3,3.7,29.7,7.8,49.3,10.2c19.9,2.3,42.1,2.9,64.8,0.4c13.6-1.4,26.1-3.7,37.7-6.5c10.7-2.6,21.3-5.7,31.6-9.4
		c19.3-7,35.1-14.7,48.4-22.1c26.5-14.8,43.3-27.6,54.8-36.5c-2.9,3.5-3.9,7.4-2.2,10c0.9,1.3,2.3,2.2,4.2,2.5
		c-19,16.9-44.7,35.8-74.6,49.5c-14.8,6.8-31,12.6-47.1,16.5c-16.2,4-32.6,6.3-48.2,7c-10.7,0.5-21.2,0.4-31.5-0.4
		c-10-0.7-19.9-1.9-29.8-3.8c-19.1-3.4-35.8-8.7-49.2-13.7C29.1,469.5,26.3,468.2,23.6,467L23.6,467z M16.9,461.6
		c11.8,1.3,29.5,2.6,50.8,2c21.3-0.6,45.4-3.1,70.2-8.2c27.8-5.7,50.7-13.2,70-20.5c19.3-7.3,34.9-14.6,47.9-21.1
		c25.9-13.1,40.9-22.5,50.2-28.8l0.9-0.1c-2.9,1.7-5.3,3.8-6.6,6c-1.3,2.1-1.7,4.4-0.9,6.3c0.1,0.2,0.3,0.5,0.4,0.7
		c-21.1,14.3-48,30.6-77.2,43.5c-29.1,13-61.1,22.2-89.9,26.1c-23.7,3.4-47.2,3.7-67.3,2C45.1,468,28.2,464.5,16.9,461.6L16.9,461.6
		z M65.3,447.7c24-5.1,52.6-12,81.5-19.7c57.9-15.5,117.4-35,147.6-46l0.1,0.2c-21.8,10.6-46.9,22.8-73.6,34
		c-26.7,11.3-55,21.3-82.5,28.5c-27.4,7.2-54.2,11.5-76.5,13.1c-22.3,1.8-40.5,1.1-50.8,0.4C21.9,456.4,41.3,452.9,65.3,447.7
		L65.3,447.7z M294,381.4c-29.4,10.6-86.9,29.1-143.5,44c-28.3,7.5-56.4,14.2-80.5,19.3c-24.1,5.1-44.1,8.7-56.1,10.7
		c10.9-4.1,29.7-10.9,52.9-18.4c23.2-7.6,50.7-15.9,79-23.6c56.5-15.5,116-28.3,147.6-34.1c0,0.2,0.1,0.5,0.1,0.7
		C293.5,380.5,293.8,381,294,381.4L294,381.4z M53.6,429.6c20.1-9.7,45.4-19.5,72.8-27c27.4-7.6,57-13.1,85.9-16.7
		c28.8-3.7,56.8-5.7,81.1-7.4v0.2c-32.7,5.8-94.9,19-152.9,34.7c-29.1,7.8-57.1,16.2-80.2,23.7c-23.1,7.5-41.1,14-50.4,17.5
		C18.1,448.8,33.4,439.2,53.6,429.6L53.6,429.6z M51.4,417.3c16.6-11.5,37.1-22.9,59.3-31.9c26.9-11,59.1-19,90.9-22.3
		c31.8-3.5,63.2-2.8,88.6-1c0.6,4.1,5.8,6.8,12.7,6.8c-0.9,0.3-1.7,0.7-2.5,1.1c-10-0.7-22.3-0.9-36.3-0.6
		c-15.3,0.4-30.6,1.4-45.8,3.1c-32.4,3.4-67.3,10.7-97,20.8c-24,7.9-46.1,17.9-64.8,28c-18.7,10.1-33.5,20.1-43,27.1
		C21.8,440.3,34.6,428.8,51.4,417.3L51.4,417.3z M21.9,432.9c9.1-11,20.9-23.9,35.7-36.4c7.6-6.5,15.6-12.6,23.9-18.2
		c8.7-5.9,17.7-11.3,27.1-16c13.7-7.1,29.1-13.3,45-18c15.8-4.7,32.6-7.8,48.7-9.3c32.6-3.1,64.2,0.3,89.1,5.3
		c-0.9,1-1.4,2.2-1.5,3.4c-0.2,2.1,1,4,3.1,5.6c2,1.6,4.9,2.7,8.3,3.2l-1.1,0.2c-24.8-3.7-57.4-6.4-91.5-3.6
		c-17.1,1.4-34.5,4.2-51.2,8.5c-16.7,4.2-33,9.9-47.4,16.4C89.2,383.5,70.2,395,54.1,407c-15.8,11.8-28.9,24.1-37.6,33.4
		C18.3,438,20.1,435.5,21.9,432.9L21.9,432.9z M67.1,357.1c13.9-17.4,29.6-33.1,46.5-45.3c17-12.2,34.7-21,52.4-25.7
		c8.7-2.4,17.6-3.7,26.1-4.2c8.5-0.5,17,0.1,25.2,1.4c16.4,2.7,31.7,8.7,46.5,16.8c11.7,6.4,23,13.8,34,21c-0.3,0.1-0.6,0.2-0.9,0.3
		c-19.5-8.8-38-16.8-56.8-21.5c-9.4-2.4-18.9-4-28.4-4.6c-9.6-0.6-19.2-0.3-28.7,1c-9.7,1.3-19.2,3.7-28.9,7.1
		c-9.5,3.4-19.2,7.9-28.4,13.3c-18.8,10.9-36.4,25.8-52.7,43.2c-18.2,19.3-34.8,42.4-49.8,65.3C35.3,403.3,49.7,378.9,67.1,357.1
		L67.1,357.1z M51.3,395.6c7.9-9.1,16.7-17.9,25.8-26c9.3-8.2,18.9-15.7,29.2-22.3c20.3-13.2,42.7-22.5,65.1-27.2
		c24.2-5,46.2-4.7,66.5-1.9c20.3,2.8,38.7,8,56.3,13.4c1.8,2,4.6,3.8,8.1,5c-4.4,0.2-8,1.4-10.3,3.4c-25.1-5.2-56.7-8.9-89.6-6
		c-16.3,1.4-33,4.4-49,9c-15.9,4.6-31.5,10.7-45.2,17.8c-14.7,7.4-28.3,16.2-40.7,25.6c-12.2,9.3-23.2,19.3-32.2,28.8
		C40.1,408.7,45.6,402.1,51.3,395.6L51.3,395.6z M293.5,330.6c-17.4-5.4-35.8-10.7-56-13.5c-20.3-2.8-42.1-3.2-66.3,1.7
		c-22.5,4.6-44.9,13.8-65.4,27c-20.7,13.1-39.2,30-55.3,48.1c-4.9,5.5-9.6,11.1-14.2,16.9c-4.4,5.6-8.5,11.1-12.5,16.4
		c15-23,31.7-46.3,49.7-65.7c16-17.3,33.6-32.2,52.2-43.1c9.1-5.5,18.8-9.9,28.2-13.4c9.6-3.4,19.2-5.9,28.7-7.3
		c19.3-2.8,38.1-1.4,56.9,3.2c18.8,4.6,37.1,12.3,56.6,21c-1.9,1-3.3,2.3-3.6,4.1C292.2,327.5,292.5,329.1,293.5,330.6z
		 M290.2,361.5c-25.6-1.9-57-2.8-88.8,0.5c-31.9,3.2-64,11-91.1,21.8C91.6,391.2,74,400.4,59,409.9c-14.9,9.5-27.7,19.5-37.1,27.8
		c9.1-9.4,21.8-20.8,36.7-31.7c15.2-11,32.6-21.5,51.8-30.1c25.5-11.6,49-17.8,69.4-21.5c20.5-3.7,38.3-4.9,53.6-5.1
		c15.3-0.3,28.1,0.4,38.9,1.3c8.9,0.7,17.7,1.7,26.5,2.9C293.6,354.9,290.1,358,290.2,361.5L290.2,361.5z M293.4,377.8
		c-27.9,1.9-60.4,4-92.8,8.4c-32.4,4.3-64.3,11.1-90.9,19.4c-31.8,9.7-59.7,22.5-78.8,33.4c14.8-9.7,35-21.3,58.2-31.3
		c23-10.1,49.3-18.8,75.5-24.8c52.5-12.2,105-14,134.8-12.2c-1.7,1-3.1,2.1-4.2,3.3C294.2,375.2,293.6,376.5,293.4,377.8
		L293.4,377.8z M299,384.7c1.7,0.4,3.6,0.6,5.6,0.5c-12.3,8.3-29.9,18.4-51,28.7c-21.2,10.3-45.8,20.5-71.7,28.5
		c-25.9,8-53.2,13.8-78.4,16.6c-25.3,2.9-48.8,3.1-66.7,2c22-0.2,52.5-3,84.9-10.5c27.2-6.1,58.4-16.3,88.6-28.8
		c30.3-12.5,59.6-26.8,84.7-39.2C296.1,383.6,297.4,384.3,299,384.7z M313.4,399.9c-19.6,15.4-46.4,34-77.6,48.6
		c-15.6,7.3-32.1,13.5-48.8,18.1c-8.3,2.3-16.7,4.3-25.1,5.9c-8.1,1.5-16.2,2.7-24.4,3.5c-20.9,2.1-41.3,1.7-59.9-0.2
		c-18.4-2-35.1-5.5-47.7-9.1c12.2,2.5,28.3,4.7,46,5.5c17.7,0.8,37.6-0.1,57.4-3c28.9-4.1,60.6-13.4,89.9-26.7
		c29.3-13.1,56-29.6,77.2-44C302.5,401.2,307.7,401.7,313.4,399.9L313.4,399.9z M52.5,479.6c12.5,3.7,27,6.8,42.2,8.8
		c15.4,1.9,31.6,2.7,48,1.8c15.6-0.8,32.2-3.2,48.4-7.3c16.2-4.1,32.3-9.9,47.2-16.9c30.1-14,55.7-33.2,74.7-50.3
		c2.8,0.2,6-0.6,9.4-2.3c-3,3.4-4.7,6.8-4.8,9.9c-12.4,13.3-25.7,26.8-41.8,39.2C259.9,475,241.2,486,218,493.7
		c-21.8,7.1-45.8,10.3-70,9c-12.2-0.5-24.3-2.2-36.4-4.7c-11.9-2.5-24-5.8-35.3-9.7C68,485.6,59.9,482.7,52.5,479.6L52.5,479.6z
		 M55.6,482.8c6.8,2.7,13.7,5.2,20.7,7.5c23.1,7.6,47.6,13.1,72,14c24.3,1.2,48.3-2.1,70.1-9.4c23.2-7.8,41.8-18.9,57.8-31.4
		c16-12.4,29.3-26,41.5-39.3c0.1,1.2,0.6,2.3,1.4,3.2c1.4,1.6,3.8,2.1,6.5,1.6c-12.6,17.4-24.6,33.3-38.6,46.8
		c-14,13.5-29.6,24.2-47.7,31.5c-9,3.6-18.5,6.3-28.6,8.2c-9.9,1.7-20.5,2.7-31.2,2.5c-21.6-0.1-44.4-4.2-67-11.3
		c-25.4-7.8-51.5-19.6-75.9-32C42.7,477.4,49,480.1,55.6,482.8L55.6,482.8z M307.6,327.5c-0.8,0.4-1.3,1-1.5,1.7
		c-0.5,2.3,3,4.9,7.9,5.7c2.2,0.4,4.2,0.4,5.9,0.2c2.3,1.3,4.6,2.6,6.9,3.9c-2.4,0.1-4.8-0.1-7.2-0.4c0,0-0.2,1-0.2,1
		c4.3,0.6,8.1,1.8,10.8,3.1c1.4,0.6,2.4,1.3,3.1,2c0.8,0.7,1.2,1.4,1.1,2.1c-0.2,1.4-1.9,2.6-4.7,3.5c-2.9,0.9-6.8,1.7-11.1,1.7
		l0.1,1c8.7-0.1,15.7,2,16,4.7c0.3,2.7-6.3,6.2-14.7,7.8l0.2,1c4.2-0.8,8.2-0.8,11.2-0.4c3,0.4,5.1,1.3,5.4,2.7
		c0.4,1.3-0.7,2.9-2.9,4.6c-2.1,1.7-5.1,3.5-8.8,4.9c-0.5,0.2-1.1,0.3-1.6,0.5l0.4,1c0.5-0.2,1.1-0.4,1.6-0.6
		c3.8-1.1,7.2-1.6,9.9-1.6c2.8,0,4.6,0.5,5.1,1.7c0.7,1.2-0.5,3.1-2.5,5.3c-2,2.1-5.1,4.5-8.9,6.5l-0.2,0.1l0.5,0.9l0.2-0.1
		c7.5-3.9,14.7-5.3,16.2-3.1c1.4,2.3-2.7,8.3-9.6,13.6l0.6,0.8c2.2-1.7,4.6-3.2,7.2-4.5c-1.5,2.4-2.9,4.8-4.4,7.2
		c-1.7,0.5-3.7,1.6-5.7,3.3c-3.8,3.1-5.7,7.2-4.1,8.9c0.6,0.7,1.6,0.9,2.8,0.7l-4.1,7.9c-3,1-5.9,0.9-7.4-0.9
		c-1.6-1.6-1.6-4.4-0.2-7.3c1.3-2.9,3.8-5.9,7.2-8.6l-0.6-0.9c-6.8,5.3-14.7,6.7-17.2,2.8c-2.5-3.9,1.8-10.4,9.3-14.5l0.2-0.1
		l-0.5-1l-0.2,0.1c-3.8,2-7.6,3.1-10.8,3.1c-3.1,0-5.5-1.2-6.5-3.2c-0.8-2-0.1-4.4,1.7-6.6c1.8-2.2,4.9-4.3,8.5-5.8
		c0.5-0.2,1.1-0.4,1.6-0.5l-0.4-1.1c-0.5,0.2-1.1,0.4-1.6,0.6c-1.4,0.4-2.9,0.7-4.4,0.9l-0.1,0l-0.1,0.1c-5.7,0.7-10-1.1-11-4.4
		c-0.7-3.3,2-6.8,7.1-9l0.2-0.1l-0.1,0c1.9-0.8,4.1-1.5,6.4-1.9l-0.2-1.1c-8.6,1.6-16.1-0.9-16.6-5.5c-0.5-4.6,6.6-8.5,15.2-8.6
		l-0.1-1.1c-4.4,0.1-8.2-0.7-11-2.2c-2.8-1.4-4.6-3.6-4.4-5.8c0.1-1.1,0.6-2.2,1.4-3.1c0.9-0.9,2.2-1.6,3.7-2.2
		c3-1.1,6.9-1.4,11.2-0.8c0,0,0.2-1.1,0.2-1.1c-8.5-1.1-15.1-5.8-14-10.4c0.3-2,2.3-3.4,4.8-4.1C302.3,324,305,325.7,307.6,327.5
		L307.6,327.5z M328.5,339.7c2.1,1.2,4.5,2.3,6.8,3.4c1.3,1.7,4.7,3.1,9,3.9l0.8,0.3c-6.6,0.3-11.1,2.3-11.1,4.8
		c0,2.6,5.1,4.4,11.9,4.3c-3.4,0.7-6.2,1.7-8.1,2.9c-1.9,1.2-3,2.6-2.7,3.8c0.4,2.6,5.8,3.7,12.5,2.6c-3.2,1.2-5.7,2.7-7.5,4.2
		c-0.9,0.8-1.5,1.5-1.9,2.3c-0.3,0.7-0.4,1.4-0.2,2c0.2,0.6,0.7,1.1,1.4,1.4c0.8,0.3,1.7,0.5,2.8,0.6c2.2,0.1,5-0.4,8.3-1.4
		c-5.7,3.3-9.2,7.3-7.9,9.5c0.5,1.2,2.3,1.5,4.5,1.2c2.2-0.3,5-1.3,8.1-2.8c-4.3,3.4-7,7.1-6.9,9.4c-1.1,1.6-2.2,3.3-3.2,4.9
		c-1.1,0.5-2.2,1.1-3.3,1.7c4.8-5,7.4-9.4,6.2-11.4c-1.2-2-6.5-1.3-12.9,1c2.8-2,5-4.1,6.3-5.8c1.5-1.8,2.1-3.3,1.5-4.4
		c-0.4-1.1-1.9-1.7-4.2-1.9c-2.2-0.2-5.1,0-8.4,0.6c5.9-3.2,9.8-6.6,9.1-9c-0.2-1.2-1.7-2.1-4-2.6c-2.1-0.6-5.2-0.8-8.6-0.7
		c6.4-2.2,11-5,10.7-7.4c-0.3-2.4-5.1-4.2-12-5c3.3-0.5,6.3-1.4,8.4-2.3c2.1-0.9,3.2-2,3.4-3.2c0-0.6-0.2-1.2-0.8-1.8
		c-0.5-0.6-1.2-1.2-2.2-1.8c-1.9-1.2-4.8-2.4-8-3.3C326.8,339.8,327.7,339.8,328.5,339.7L328.5,339.7z M352.2,349.9
		c-2.5,0.3-4.3,1.1-4.2,1.9c0.1,1.3,4,2.1,9,1.8c1.9-0.1,3.8-0.4,5.7-0.8c1.8,0.4,3.8,0.8,5.6,1c-1.7,0.3-3.4,0.5-5.1,0.6l0,0.5
		c3.1-0.3,6.2-0.5,9.4-0.5c2.2,0.2,4.1,0.4,6.2,0.4c0.2,0.1,0.3,0.2,0.4,0.3c0.1,0.3-0.3,0.6-1.1,1c-0.7,0.4-1.7,0.9-3.1,1.4
		c-2.7,1.1-6.4,2.4-10.6,3.5c0,0,0.1,0.5,0.1,0.5c4.2-1.1,8.1-1.8,10.9-2.2c1.4-0.2,2.6-0.3,3.4-0.3c0.8,0,1.4,0.1,1.5,0.3
		c0.1,0.2-0.1,0.4-0.4,0.7c-1.4,0.9-2.7,1.7-4,2.7c-2.5,1.4-5.1,2.8-7.8,4c-0.5,0.2-1,0.4-1.6,0.7c0,0,0.3,0.4,0.2,0.4
		c0.5-0.2,1-0.5,1.6-0.7c1.2-0.5,2.4-1,3.7-1.5c-1.5,1.2-3,2.5-4.5,3.8c-2,0.6-3.9,1.4-5.7,2.3c-4.5,2.2-7.5,4.8-6.9,6
		c0.3,0.8,2.5,0.5,5.1-0.6c-1.2,1.4-2.6,2.9-3.8,4.3c-2.8,1.5-5.4,2.4-7.4,2.8c-2,0.3-3.7,0.1-4.1-0.9c-1.3-2.3,3.5-6.8,10.5-10.1
		c0.5-0.2,1-0.5,1.6-0.7c0,0-0.3-0.6-0.3-0.6c-0.5,0.2-1.1,0.5-1.6,0.7c-3.6,1.5-7,2.4-9.6,2.5c-2.7,0.2-4.6-0.4-4.9-1.6
		c-0.2-0.7-0.1-1.4,0.5-2.2c0.6-0.8,1.6-1.7,2.8-2.5c2.5-1.7,6.1-3.1,10.3-4.3c0,0-0.1-0.6-0.1-0.6c-4.2,1.1-8.1,1.6-11,1.4
		c-1.5-0.1-2.8-0.4-3.7-0.8c-0.9-0.4-1.4-1-1.5-1.7c-0.4-1.4,1.3-2.9,4-4.1c2.7-1.2,6.5-2.1,10.8-2.5l0-0.6
		c-8.6,0.9-15.9-0.6-15.9-3.4c-0.1-1.1,1.1-2,2.9-2.8c1.8-0.7,4.3-1.2,7.4-1.3C348.3,348.7,350.3,349.3,352.2,349.9L352.2,349.9z
		 M369.7,354.1L369.7,354.1L369.7,354.1L369.7,354.1z M381.4,354.9c2.9,0,6.2-0.1,9.1-0.5c-2.8,1.2-5.4,2.6-8,4.1
		c-0.4-0.3-1.7-0.3-3.7-0.1c-2.1,0.2-4.9,0.6-8.1,1.3c3-1,5.6-2,7.5-2.9c0.9-0.4,1.7-0.8,2.2-1.1
		C380.9,355.4,381.3,355.1,381.4,354.9L381.4,354.9z M373.1,364.9l-0.3,0.1l0.5-0.3L373.1,364.9z M308.7,465.1
		c12.8-21.2,22.2-44.2,34.7-64.7c6.2-10.2,13.1-19.7,21.2-27.7c8-8,17.3-14.4,27-18.6l0.1-0.1l-0.2,0c-10.5,1.2-21.7,0.3-32.7-2.6
		c-11-2.9-21.7-7.6-32.2-13.4c-21.1-11.5-40.7-26.7-62.5-38.7c-14.9-8.2-30.3-14.4-46.7-17.2c-16.5-2.9-33.8-2.2-51.6,2.4
		c-17.8,4.6-35.7,13.3-52.8,25.6c-16.9,12.2-32.9,27.9-46.9,45.4c-13,16.2-24.5,33.9-34.6,51c-5.1,8.5-9.7,16.9-14.3,24.8
		c-4.5,7.9-8.8,15.3-13.2,22c-1.7,2.5-2.6,4-2.7,4.1l0,0l0,0v0l-0.9,1.3l1.5,0.7c0.1,0,1.6,0.8,4.2,2.1c7.2,3.6,14.6,7.9,22.4,12.5
		c8,4.5,16.1,9.5,24.9,14.3c17.3,9.8,36.1,19.4,55.5,26.9c20.9,8.1,42.5,13.7,63.3,15.8c20.9,2.1,40.8,0.6,58.5-4.2
		c17.7-4.9,33.1-13,45.9-23.7C289.7,492.8,300,479.7,308.7,465.1L308.7,465.1z M164.2,185.2c-4.3-20.3-5.7-42.5-4.3-64.5
		c1.5-27.7,7.1-55.3,12.6-80c-4.1,27.2-7.2,55.3-6.6,81.7c0.4,23.8,3.9,46.8,10.4,67.3c1.6,5.1,3.5,10,5.5,14.9
		c2,4.8,4.3,9.5,6.8,14c4.8,8.9,10.5,17.2,16.7,24.6c12.5,14.9,27.8,26.5,44.9,35.5c17.1,9,36.4,15.6,56.8,22l0.5,0.7
		c-13.4-2.1-26.8-4.1-40.2-7.4c-16.3-3.9-31.7-9.7-45.5-18.6c-13.8-8.9-26.2-21-36-36.3C175.9,223.9,168.4,205.4,164.2,185.2
		L164.2,185.2z M171.9,82.3c-0.2,24.2,2.5,49.3,8.9,72.6c6.6,23.5,16.8,45,30.6,63.6c7.1,9.7,14.8,18.2,22.9,25.6
		c8,7.4,16.2,13.8,24.5,19.5c16.6,11.3,33.6,19.8,50,27.3c-1.1,0.5-2.1,1.3-2.7,2.3c-1,1.9-0.9,4.3,0.4,6.7
		c-20.1-6.5-39.2-13.1-56.1-22.2c-16.9-9-32.1-20.8-44.4-35.6c-6.3-7.6-11.9-15.8-16.5-24.6c-4.9-9-8.8-18.5-12.1-28.8
		c-6.4-20.4-9.7-43.3-10.1-67c-0.5-26.5,2.7-54.7,7-82C173,52.9,172.1,67.3,171.9,82.3L171.9,82.3z M176.9,34.1l1-9.2
		c0.4,13.1,1.5,30.5,5.5,50.1c3.8,19.5,10.3,40.9,19.5,61.5c11.3,25.1,24,44.6,36.5,60.8c12.5,16.1,24.7,28.7,35.7,39
		c22.2,20.5,39.6,32.5,51.5,40.7c-2.1-0.8-4.2-1.2-6-1.1c-1.8,0.2-3.2,0.9-4.2,2.1c-1.1,1.2-1.3,3-1.1,4.8
		c-22-12.9-47.6-31.3-69.8-55.5c-11.3-12.2-21.3-25.4-30.1-39.6c-8.8-14.1-15.9-28.9-21.5-43.5c-3.7-9.8-6.9-20-9.4-29.9
		c-2.4-9.7-4.3-19.5-5.6-29.4c-1.2-9.1-1.9-18.2-2.3-27.3C176.4,49.1,176.6,41.2,176.9,34.1L176.9,34.1z M189,76
		c4.8,17.2,11.5,35.5,20.5,53.6c6.8,13.6,14.5,26.8,23.2,39.3c9,13.1,19.1,25.7,29.8,37.6c21.4,23.7,45.2,43.9,65.5,59.5
		c-1.9,3-0.8,8.1,2.6,12.9c-20.5-13.6-46.6-33.5-69.9-58.5c-11.7-12.5-22.7-26.3-32.3-40.7c-9.5-14.3-17.7-29.4-24.1-44.1
		c-8.3-19-14.5-38.7-18.2-56.8c-3.9-18.3-5.4-34.9-6-48.2C181.6,43.2,184.2,58.9,189,76L189,76z M181,16.9c1.4,7.1,3.1,14.2,5,21.3
		c2.5,9.3,5.4,18.5,8.6,27.7c7,19.9,16.9,42.3,29.3,64c13.9,24.5,28,43.9,41,60c12.9,16,24.6,28.6,34.7,38.9
		c10.1,10.2,18.7,18.2,25.7,24.5c7.1,6.3,12.5,10.8,17,14.2l0.4,0.8c-2.6-2.3-5.2-3.8-7.6-4.4c-2.4-0.6-4.7-0.3-6.2,1.1
		c-0.2,0.2-0.4,0.4-0.5,0.6c-20.1-15.7-43.7-35.9-65-59.7c-10.6-11.9-20.7-24.6-29.6-37.7c-8.9-13-16.6-26.4-22.9-39.4
		c-5.3-10.8-9.8-21.6-13.5-32.3c-3.7-10.6-6.9-21.2-9.1-31C183.6,45.8,181.6,28.4,181,16.9L181,16.9z M187.6,35.6
		c6.9,20.9,19,49,36,77.4c14.1,23.9,33.4,50.4,54.5,75.1c21.1,24.8,43.9,48.3,63.1,68.2c-1.2,2.4-0.8,6.1,0.6,9.8
		c-22.9-18.1-60.9-54.4-92-98.7c-15.6-22-29.3-46-39.9-69.2C199.4,75.3,192,53,187.6,35.6L187.6,35.6z M182.5,10.4
		c5,9.5,14.3,26.9,26.5,48.1c12.2,21.2,27.4,46.2,43.7,71.2c32.4,50.1,69.2,100.5,88.9,125.9l-0.1,0.2
		c-16.7-17.5-35.9-37.4-54.8-59.4c-18.9-21.9-37.2-45.6-52.4-69.4c-15.3-23.8-27.4-47.7-35.9-68.5C189.9,37.8,185,20.4,182.5,10.4
		L182.5,10.4z M219.7,56.5c14.3,19.6,30.6,43.2,46.5,67.7c32,48.9,62.3,101.3,77.5,129.5c-0.7,0.3-1.2,0.8-1.7,1.4
		c-19-24.7-54.2-73.5-85.7-122.6c-15.8-24.5-30.7-49.1-42.9-70.4c-12.2-21.3-21.7-39.1-27.3-49.9C193.3,21.2,205.4,36.8,219.7,56.5
		L219.7,56.5z M222.8,41.7c7.7,8.1,15.8,17.3,23.9,27.5c8.1,10.2,16.2,21.4,24,33.3c15.6,23.7,29.8,50.1,42.1,76.4
		c6.1,13.1,11.8,26.1,17.1,38.7c5.3,12.6,10.2,24.8,14.7,35.9l-0.2,0c-15.5-29.2-47-84.1-79.7-134.4c-16.3-25.2-32.9-49.2-47.1-68.8
		c-14.2-19.6-25.9-34.7-32-42.4C193.5,13.9,207.4,25.5,222.8,41.7L222.8,41.7z M233.8,35.8c8.5,6.5,16.7,13.5,24.4,20.9
		c8.4,8.1,16.4,16.7,23.9,25.6c9.2,11,18.3,23.6,26.6,37.1c8.3,13.5,15.8,27.8,22.2,42.4c13,29.1,21.9,59.2,27.9,83.8
		c-1.8,1-3,2.9-3.4,5.3c-0.4,2.5-0.1,5.6,1,8.8c-0.6-0.7-1.2-1.4-1.8-2.1c-4.8-19.3-14.2-47.4-27.4-77.2
		c-13.1-29.7-30.7-60.6-49.3-85.8c-14.7-20.2-31-38.3-46.4-52.9c-15.2-14.5-29.4-25.5-39-32.4C202.9,14.8,217.7,23.4,233.8,35.8
		L233.8,35.8z M209.9,12.6c6.5,2.5,13.9,5.7,21.6,9.4c8.2,4,16.2,8.4,23.9,13.2c16.3,10,33,22.9,47.9,37.9
		c10.9,11,21.4,23.5,30.7,37.2c9.3,13.6,17.3,28.4,23.7,43.4c13,29.9,19.5,60.8,22.4,86.2c-1.3-0.5-2.6-0.7-3.8-0.4
		c-4.1,1.1-6.1,6.7-5,13.6l-0.6-0.9c-4.1-24.8-11.4-56.4-24.6-88c-6.6-15.8-14.5-31.3-23.6-46c-4.5-7.2-9.3-14.3-14.5-21.1
		c-4.9-6.5-10.1-12.8-15.5-18.9c-7.6-8.5-15.5-16.4-23.6-23.5c-8.1-7.1-16.4-13.8-24.5-19.5c-7.6-5.3-15.3-10.3-23.4-15
		c-7.4-4.2-14.1-7.6-20-10.4C204,10.7,206.9,11.7,209.9,12.6L209.9,12.6z M293.5,39.7c21.2,9.8,40.6,22.2,56.6,36.3
		c4,3.6,7.8,7.2,11.3,10.9c3.6,3.8,6.9,7.7,10,11.7c6.2,7.9,11.5,16.3,15.7,25c8.6,17.2,13.1,35.8,14.5,54.9
		c1.5,19.1-0.2,39.2-2.4,60.2c-1.5-1.6-3.2-2.2-5-2.1c-1.6,0.1-3,1-4.1,2.5c-0.2-18.2-1-37.4-4.5-57.4c-3.6-19.9-10-41.1-22-62.2
		c-5.7-10-12.4-19.7-20-28.6c-3.9-4.5-7.9-8.9-12.1-13.1c-4.3-4.2-8.7-8.2-13.4-12.1c-9.3-7.9-19.3-14.7-29.9-21.1
		c-10.4-6.1-21.5-11.9-32.5-16.7C242,21.6,228.6,16.9,216,12.6C242.6,19.8,269.6,28.4,293.5,39.7L293.5,39.7z M295.6,32.2
		c20.6,7.9,40.1,17.9,56.9,30.2c8.3,5.9,16,12.8,22.8,19.6c6.8,7.2,12.7,14.3,17.6,22c9.9,15.2,15.9,31.5,18.4,47.8
		c2.5,16.3,1.5,32.8-1.6,49.3c-2.4,13.3-5.9,25.9-9.3,38.8c-0.2-0.3-0.4-0.5-0.6-0.8c2.3-21.2,4.1-41.4,2.8-60.6
		c-1.3-19.2-5.7-37.8-14.2-55.3c-4.2-8.6-9.5-17.3-15.6-25.2c-3.1-4-6.4-7.9-10-11.8c-3.6-3.8-7.3-7.4-11.3-11
		c-8-7.3-16.8-13.7-26.4-20c-9.5-6-19.7-11.8-30.4-16.7c-23.7-11.3-50.7-20.1-77.1-27.3C242.3,16.1,269.8,22.4,295.6,32.2z
		 M380.8,240.3c-2.7-25.4-9-56.6-21.9-86.7c-6.4-15.1-14.4-30.1-23.6-43.7c-4.6-6.8-9.5-13.5-14.7-19.9c-5-6.1-10.4-12-15.9-17.7
		c-5.7-5.8-11.6-11.3-17.8-16.4c-6.1-5.1-12.4-10-18.7-14.4c-12.6-8.7-25.4-16.1-37.1-21.7c7.9,2.8,15.7,5.9,23.4,9.2
		c22.1,9.5,43.8,22.1,62.4,37.4c9.3,7.7,17.9,16,25.5,25c3.8,4.5,7.4,9,10.8,13.8c3.3,4.7,6.4,9.6,9.3,14.7
		c6.1,10.6,10.8,21.2,14.4,31.7c3.6,10.5,6.1,20.7,8,30.7c3.6,20.1,4.4,39.3,4.7,57.5c-1.4,2.2-2.2,5.5-2.2,9.2
		C385.8,245,383.4,241.7,380.8,240.3L380.8,240.3z M332,161.1c-12.7-29.2-29.9-57.5-48.4-79.7c-12.7-15.5-26.8-29.4-40.4-40.6
		c-6.4-5.3-13.1-10.4-19.9-15.2c-5.8-4-11.7-7.8-17.8-11.4c11.8,5.8,26.4,14.2,41.4,25.1c7.5,5.4,15.1,11.6,22.6,18.2
		c7.6,6.8,14.9,14,21.8,21.6c18.8,20.8,31.7,41,41.5,59.3c9.7,18.3,16.3,34.8,21.2,49.2c4.9,14.4,8.2,26.8,10.6,37.3
		c2.5,10.5,4.1,19.1,5.3,26.1c-1.5-2.2-3.3-3.9-5.1-4.9c-1.8-0.9-3.6-1.2-5.3-0.8C353.6,220.5,344.8,190.3,332,161.1L332,161.1z
		 M308.8,167.8c-13.9-29.4-30.1-57.7-46.1-80.4c-19-27.3-39.6-49.6-55.8-64.5c13.9,11.1,30.9,26.6,47.6,45.5
		c16.7,18.8,32.8,40.9,46.5,64.1c13.8,23,25.1,46.9,33.9,68.6c8.7,21.7,15.1,41.1,18.8,55.6c-2.9-2.7-5.9-3.9-8.5-3.5
		C334.8,227.5,322.8,197.2,308.8,167.8L308.8,167.8z M192.5,145.2c5.8,14.7,12.9,29.4,21.9,43.6c8.9,14.2,19.2,27.5,30.5,39.6
		c22.5,24.2,48.3,42.5,70.6,55.3c0.5,2.6,2.4,5.6,5.1,8.3c-4-1.8-8.1-2.4-10.9-1.4c-16.3-7.6-33.3-16.1-49.9-27.5
		c-16.6-11.4-33.1-25.9-47.3-45.5c-13.6-18.6-23.7-40.2-30.2-63.6c-6.4-23.3-8.9-48.3-8.6-72.5c0.1-8.6,0.6-17,1.1-25.2
		C175.5,82.6,180.7,114.8,192.5,145.2L192.5,145.2z M397.5,251.3c-0.6-0.6-1.3-1-2-0.9c-2.4,0.1-3.7,4.5-2.9,9.3
		c0.3,2.2,0.9,4.2,1.7,5.6c-0.5,2.5-1,5.1-1.6,7.7c-0.8-2.2-1.4-4.6-1.8-6.9l-1,0.2c1.4,8.5,0.4,15.8-2.3,16.5
		c-2.7,0.8-7.2-5.2-10.1-13.3l-0.9,0.3c1.4,4.1,2.1,8,2.1,10.9c0,3-0.4,5.2-1.8,5.6c-1.3,0.6-3.1-0.4-5.3-2.6c-2.1-2-4.5-5.2-6.5-9
		l-0.9,0.5c2.1,3.8,3.3,7.5,3.9,10.5c0.6,3,0.4,5.1-0.8,5.8c-2.1,1.4-7.4-2.2-12.5-8.2c-0.3-0.5-0.7-0.9-1-1.4l-0.8,0.6
		c0.4,0.5,0.7,0.9,1.1,1.3c2.2,3.2,3.8,6.4,4.7,8.9c0.8,2.6,0.9,4.4,0,5.3c-0.5,0.5-1.3,0.6-2.3,0.4c-1-0.1-2.1-0.5-3.5-1.1
		c-2.7-1.3-5.9-3.5-9-6.4l-0.2-0.2c0,0-0.7,0.7-0.7,0.7l0.2,0.1c6.1,6,9.5,12.3,7.8,14.4c-1.7,2.1-8.8,0-15.9-4.8l-0.5,0.8
		c2.3,1.6,4.4,3.4,6.4,5.4c-2.8-0.7-5.4-1.2-8.2-1.8c-1-1.5-2.7-3.1-4.9-4.5c-4.1-2.6-8.5-3.2-9.7-1.1c-0.4,0.8-0.3,1.8,0.3,2.9
		c-2.9-0.5-5.9-1-8.8-1.4c-2-2.6-2.5-5.3-1.4-7.4c1.2-2,3.8-2.8,6.9-2.5c3.2,0.4,6.9,1.8,10.5,4.3l0.6-0.9
		c-7.2-4.8-10.8-11.9-7.9-15.6c2.9-3.6,10.5-1.5,16.6,4.3l0.2,0.2c0,0,0.7-0.9,0.7-0.8l-0.2-0.1c-3-3-5.2-6.2-6.2-9.2
		c-0.5-1.5-0.7-2.9-0.5-4.2c0.2-1.2,0.7-2.2,1.5-3c1.5-1.5,4.1-1.5,6.7-0.4c2.7,1,5.5,3.2,8,6.2c0.3,0.5,0.7,0.9,1,1.4l1-0.7
		c-0.4-0.5-0.7-0.9-1.1-1.4c-0.8-1.2-1.6-2.5-2.2-3.9l0-0.1l-0.1-0.1c-1.2-2.5-1.7-5-1.7-7.1c0.1-2,0.9-3.7,2.3-4.6
		c2.8-1.7,7-0.1,10.6,4l0.1,0.2l0-0.1c1.4,1.6,2.7,3.4,3.8,5.5l1-0.5c-2-3.8-3.1-7.6-3.1-10.9c0-3.1,1.2-5.6,3.2-6.6
		c2.1-0.8,4.7,0,7,2.1c2.4,2.2,4.4,5.6,5.9,9.7l1-0.4c-2.9-8.2-1.6-16,3-17.2c4.6-1.2,9.5,5.1,10.9,13.6l1.1-0.2
		c-0.7-4.3-0.6-8.3,0.4-11.2c1-2.9,2.8-5.1,5.1-5.2c2-0.1,3.9,1,5.4,3.3L397.5,251.3L397.5,251.3z M391.1,282.4
		c-1.2,1.8-1.6,5.5-1.1,9.8l-0.1,0.8c-1.2-3.1-2.6-5.4-4.1-7c-1.4-1.6-3-2.4-4.1-1.9c-2.5,0.8-2.6,6.3-0.6,12.6
		c-3.2-5.8-7.4-9.5-9.6-8.2c-1.1,0.5-1.5,2.2-1.2,4.5c0.3,2.2,1.2,5,2.8,8.1c-4.2-5.3-8.7-8.1-10.8-6.6c-2,1.6-0.6,6.5,3.4,12
		c-5-4.5-9.7-6.4-11.5-4.6c-0.8,1-0.8,2.6,0.2,4.7c1,2.1,2.8,4.4,5.1,6.8c-4.7-3.1-8.8-4.3-11.1-3.6c-1.9-0.5-3.7-1-5.6-1.5
		c-0.8-0.9-1.7-1.8-2.6-2.6c6.1,2.9,11.3,4.1,12.7,2.2c1.5-1.9-0.6-6.6-4.9-12c2.7,1.9,5.5,3.5,7.6,4.2c2.1,0.7,3.7,0.9,4.6,0.1
		c0.8-0.9,1-2.4,0.4-4.6c-0.5-2.2-1.7-4.9-3.3-7.8c4.9,4.7,9.2,7.3,11.1,6c2-1.2,1.3-6.5-0.9-12.9c2,2.8,4,4.9,5.8,6.3
		c1.8,1.5,3.3,2.1,4.4,1.5c1.1-0.4,1.7-2,1.9-4.3c0.2-2.2,0-5.2-0.6-8.6c3.1,6,6.7,10.1,9,9.4c1.2-0.2,2.1-1.8,2.6-4
		c0.6-2.2,0.8-5.2,0.7-8.6c0.3,0.8,0.6,1.6,0.9,2.4C391.9,277.4,391.5,279.9,391.1,282.4L391.1,282.4z M389.5,300.5
		c-1.1-2.3-2.4-3.7-3.2-3.4c-0.6,0.2-0.9,1.3-0.7,3c0.2,1.7,0.8,3.9,1.7,6.1c0.8,2,1.7,3.8,2.5,5.1c0.2,2,0.4,3.8,0.7,5.7
		c-0.8-1.5-1.5-3.1-2.2-4.7c0,0-0.4,0.2-0.4,0.2c1.3,2.9,2.4,5.8,3.4,8.7c0.4,2.1,0.9,3.9,1.5,6c0,0.2-0.1,0.3-0.2,0.4
		c-0.5,0.1-1.6-1-3.5-3.3c-2.3-2.9-4.5-5.9-6.5-9l-0.4,0.3c4.6,7.3,7.8,13.6,7.1,14.1c-0.2,0.1-0.4,0-0.7-0.1c-1.2-1-2.5-2.1-3.8-3
		c-2.1-1.9-4.2-3.9-6.1-6.1l-1.1-1.3l-0.4,0.3l1.2,1.3c0.9,1,1.7,2,2.5,3c-1.7-1.1-3.2-2-4.9-3c-0.9-1.3-2.3-3-3.9-4.8
		c-3.4-3.5-6.9-5.7-7.9-4.7c-0.6,0.7,0.3,2.5,2.1,4.6c-1.7-0.8-3.4-1.4-5.2-2.1c-2.2-2.2-4-4.4-4.9-6.3c-0.9-1.8-1-3.3-0.3-4.2
		c0.9-0.9,2.9-0.6,5.1,0.5c2.3,1.2,5.1,3.5,7.8,6.3l1.1,1.3l0.5-0.4l-1.2-1.3c-5.1-6-7.5-11.9-5.5-13.5c2.3-1.7,7.9,3,12.5,10.3
		l0.5-0.3c-2.3-3.7-4-7.2-4.8-10c-0.7-2.8-0.6-5.1,0.6-5.6c0.6-0.3,1.4-0.2,2.2,0.2c0.9,0.5,1.9,1.3,2.8,2.4c2,2.2,4,5.6,5.7,9.5
		c0,0,0.5-0.3,0.5-0.2c-1.7-4-2.8-7.7-3.1-10.6c-0.1-1.5-0.1-2.8,0.2-3.7c0.3-0.9,0.8-1.5,1.4-1.8c1-0.4,2.3,0.3,3.6,1.8
		c1.3,1.5,2.5,3.8,3.6,6.5C389.6,296.6,389.5,298.6,389.5,300.5z M390.7,318.5L390.7,318.5L390.7,318.5L390.7,318.5L390.7,318.5z
		 M395.2,334.2c0.6,1.4,1.2,2.7,1.9,4.1c-1-1.2-1.9-2.3-3-3.4c-1-1.1-2.1-2.1-3.2-3.2c0.3-0.7-1.8-4.9-4.9-10.7
		c1.6,2.1,3.2,4.2,4.9,6.3c1.4,1.6,2.2,2.4,2.7,2.6C394.1,331.3,394.6,332.8,395.2,334.2z M382.2,324.7l-0.2-0.2l0.4,0.4
		L382.2,324.7L382.2,324.7z M184.8,240.2c9.9,15.3,22.5,27.4,36.4,36.3c14.1,8.9,29.6,14.7,46,18.5c24.1,5.7,48.8,7.6,72,12.9
		c23.2,5.3,45.2,14.5,58.6,31.4l0.1,0.1l-0.1-0.1c-4.9-9.5-7.3-20.3-7.8-31.7c-0.4-11.4,1.1-23.1,3.3-34.9
		c4.5-23.5,12.7-46.8,17.3-71.3c3.2-16.6,4.3-33.1,1.9-49.7c-2.4-16.3-8.3-32.8-18.2-48.1c-9.8-15.4-23.6-29.7-40.4-42.1
		c-16.8-12.5-36.3-22.5-57-30.6c-19.3-7.6-39.4-12.8-58.8-17.3l-27.9-5.9c-8.9-1.8-17.3-3.6-25.1-5.6L180.3,1l0,0l0,0l0,0l-1.6-0.4
		l-0.2,1.6c0,0.1-0.3,1.7-0.8,4.7c-1.3,7.9-3.2,16.3-5.1,25.3c-1,4.5-2,9.1-3,13.7c-1,4.7-2,9.5-3,14.4c-4,19.4-7.2,40.3-8.3,61
		c-1.3,22.2,0.1,44.5,4.6,64.8c2.1,10.1,5.3,20,8.8,28.9C175.5,224.2,179.7,232.5,184.8,240.2L184.8,240.2z"/>
	<linearGradient id="SVGID_3_" gradientUnits="userSpaceOnUse" x1="411.047" y1="183.285" x2="672.7234" y2="183.285">
		<stop  offset="5.617999e-03" style="stop-color:#E4E5E6"/>
		<stop  offset="0.2528" style="stop-color:#F7F3E2"/>
		<stop  offset="0.6011" style="stop-color:#EBEBEC"/>
		<stop  offset="0.8708" style="stop-color:#FFFEF0"/>
		<stop  offset="1" style="stop-color:#EEEBDE"/>
	</linearGradient>
	<path class="st3" d="M416.6,151.9c4.1-16.1,11.8-31.6,23.2-45.8c11.4-14.2,26.6-26.8,44.6-37.3c17.9-10.3,38.6-18.3,60-23.9
		c26.7-7,54.8-10.3,79.8-12.6c-27,4.4-54.7,10.3-79.6,18.9c-22.5,7.8-43.2,17.9-60.8,30.6c-17.5,12.7-31.7,27.6-41.9,44.3
		c-5,8.2-9.2,16.9-12.5,26c-3.2,9.1-5.6,18.4-7.2,28.1c-3.2,19.3-3.4,39.6-3.2,61.2c-0.2,0.2-0.3,0.4-0.5,0.6
		c-2.1-13.4-4.4-27.1-5.5-40.8C411.8,184.5,412.5,168,416.6,151.9z M584.7,44.7c-23,7.3-45.9,17.4-66.1,30.9
		C508.5,82.3,499,89.9,490.5,98c-8.6,8.2-16.2,17.1-22.9,26.4c-14.1,19.9-22.5,39.9-28.2,59.4c-5.6,19.5-8.3,38.3-10.4,56.3
		c-0.8-0.9-1.9-1.5-3-1.8c-2.1-0.5-4.3,0.5-6.2,2.5c-0.1-21.5,0.2-41.5,3.6-60.7c3.3-19.2,9.6-37.1,20-53.6
		c5.1-8.2,11.2-15.9,18.2-23.4c7-7.2,15-14.2,23.7-20.3c17.5-12.6,38.2-22.5,60.5-30.2c25-8.6,52.8-14.3,80-18.7
		C612.8,36.8,599,40.1,584.7,44.7L584.7,44.7z M631.9,34.6c3.1-0.6,6.1-1.2,9-1.8c-12.2,4.2-28.5,11-45.7,20.7
		c-17.3,9.8-35.5,22.4-52.4,37.7c-9.4,8.5-18.3,17.7-26.5,27.4c-7.1,8.4-13.7,17.1-19.9,26.2c-11.4,17-19.6,32.6-26,46.3
		c-12.6,27.6-18.6,47.9-22.6,61.8c0.3-4.6-1.2-8.3-4.2-9.4c-1.5-0.5-3.2-0.5-4.9,0.4c5.4-24.9,15-55.3,31-84
		c8-14.3,17.6-28.4,28.2-41c10.7-12.7,22.6-24.3,34.6-34c8.3-6.7,16.8-12.7,25.5-18.2c8.7-5.5,17.5-10.3,26.2-14.4
		c8.2-4,16.6-7.5,25.2-10.6C617.5,38.8,625.1,36.3,631.9,34.6L631.9,34.6z M607.3,61.3c-16.8,13-34.8,29.3-51.6,47.9
		c-19,21-33,40.5-44.3,57.8c-11.2,17.3-19.5,32.4-26.1,45.3c-6.6,12.9-11.5,23.5-15.2,32.1c-3.7,8.7-6.4,15.5-8.2,20.7l-0.6,0.6
		c1.3-3.1,2-6.1,1.8-8.7c-0.2-2.5-1.3-4.5-3-5.6c-0.2-0.2-0.5-0.2-0.7-0.3c8.5-24,20.5-53.1,36.5-80.7c15.8-27.6,36.1-54,56.9-74
		c8.4-8.1,17.2-15.8,26.5-23c8.9-6.9,17.9-13,26.5-18.3c17.3-10.7,32.9-17.6,43.8-22C639.2,39,624,48.4,607.3,61.3L607.3,61.3z
		 M618.7,72.9c-16.3,18.3-35.3,40.6-54,63.9c-37.5,46.6-73.9,97.4-91.7,124l-0.2,0c5.6-10.6,11.7-22.1,18.3-34.1
		c6.5-11.9,13.5-24.3,20.9-36.7c14.8-24.8,31.7-49.7,49.6-71.6c17.9-22,36.8-41.1,53.8-55.6c17-14.5,32-24.8,40.7-30.1
		C648.6,40.3,635.1,54.6,618.7,72.9L618.7,72.9z M639,80.8c-10.5,19.8-25,42.4-42.7,64.6c-17.6,22.2-38.3,44.1-59.3,63.9
		c-21.1,20-42.5,37.9-61,53.6l-0.1-0.1c22.9-24,65.3-71.1,102.7-118c18.8-23.4,36.4-46.7,50.5-66.3C643.4,59,654,43.1,659.5,34.8
		C656.1,44.4,649.6,61,639,80.8L639,80.8z M662.5,59.5c-0.4,7.1-1,15-2.2,23.5c-1.3,9.1-2.9,18.1-5,27c-2.3,9.5-5.1,19.2-8.6,28.8
		c-3.6,9.9-7.7,19.5-12.4,28.9c-7,13.9-15.6,27.8-25.7,41c-10.1,13.1-21.4,25.2-33.8,36.1c-24.5,21.7-51.8,37.3-75,47.9
		c0.1-1.4-0.1-2.7-0.7-3.7c-1.2-1.7-3.2-2.7-5.8-2.7c-2.6,0-5.6,0.8-8.7,2.3l0.7-0.8c22.1-11.5,50.2-28.5,75.9-50.8
		c12.9-11.1,25.2-23.6,36.3-36.9c11-13.3,20.6-27.3,28.6-41.1c11.2-19.6,19.9-40.4,25.7-59.4c5.9-19.2,8.9-36.4,10.6-49.4
		C662.5,53.2,662.5,56.4,662.5,59.5L662.5,59.5z M670.8,147.7c-0.8,22.2-4.4,44.3-10.8,64.1c-6.3,19.8-15.7,37.5-27,51.6
		c-5.8,7.1-12,13.3-18.6,18.7c-6.6,5.3-13.6,9.8-21.2,13.6c-14.7,7.4-30.7,11.5-47.4,13.7c-6.6,0.9-13.3,1.4-19.9,1.8
		c-6.6,0.4-13.4,0.7-19.9,1c0.2-0.3,0.4-0.5,0.6-0.8c20.8-4.2,40.6-8.6,58.5-15.8c9-3.6,17.5-7.8,25.6-12.9
		c8.1-5.1,15.7-11,22.6-17.7c7.1-6.9,13.6-14.5,19.1-22.7c5.8-8.4,10.7-17.6,15.1-27.5c8.6-19.7,14.3-42.4,17-66
		c3.2-26.3,3-54.8,1.6-82.3C669.2,91.6,672,119.9,670.8,147.7L670.8,147.7z M660.9,107.1c-2.2,24.2-7.2,48.9-15.9,71.5
		c-8.8,22.8-21.1,43.3-36.5,60.3c-16.4,18.2-34.6,30.9-52.5,40.6c-18,9.6-36,16.3-53.2,22.1c-2.5-0.7-6-0.4-9.5,0.7
		c3.4-2.7,5.9-6,6.3-8.8c23.4-10.5,51-26,75.7-47.6c12.4-10.8,24-23,34.2-36.1c10.3-13.2,18.9-27,26.1-41
		c14.9-29.1,23.3-60.8,26.7-86.9C662.1,90.1,661.7,98.5,660.9,107.1L660.9,107.1z M507.6,305.2c-0.6-1.5-2-2.5-3.7-3.2
		c17.2-5.8,35.2-12.3,53.1-21.9c17.8-9.5,36-22.2,52.4-40.2c15.6-17.1,28-37.5,36.9-60.3c8.8-22.6,14-47.4,16.2-71.6
		c0.8-7.6,1.1-14.8,1.4-22c0.3-7.2,0.4-14.1,0.4-20.7c1.5,27.6,1.8,56.2-1.3,82.6c-2.7,23.5-8.2,46-16.6,65.7
		c-4.4,9.9-9.1,19-14.9,27.5c-2.8,4.1-5.7,8.1-8.9,12c-3.1,3.8-6.5,7.3-10,10.8c-13.7,13.5-30,23.5-47.7,30.7
		c-17.7,7.3-37.3,11.9-57.9,16.1C508.1,308.8,508.3,306.8,507.6,305.2L507.6,305.2z M648,89.5c-3.3,9.5-7.4,19.7-12.2,29.9
		c-5,10.6-10.6,20.9-16.8,30.8c-7.6,12.3-16.7,24.9-26.8,36.9c-10.2,12.1-21.5,23.8-33.3,34.5c-23.6,21.5-49.2,39.2-70.8,52.7
		c-2.8-3.1-8.8-2-14.1,1.9c0.5-0.8,1-1.6,1.4-2.4c8.4-5.2,18.5-12.3,29.6-20.8c12.1-9.3,23.8-19,35.1-29.3
		c24.1-21.8,48-48.3,66-73.7c14.5-20.4,26.8-41.7,35.7-60.8c9.1-19.1,15.1-36.2,18.6-47.4C658.4,53.3,654.6,70.5,648,89.5L648,89.5z
		 M488.5,274.9c21.8-13.4,47.5-31.1,71.3-52.4c23.8-21.2,45.3-46.6,60.5-71.1c10.8-17.2,19.4-34.7,25.9-51.3
		c6.5-16.6,10.7-32,13.5-44.4c-2,13.2-5.2,29.6-10.9,47.5c-5.6,17.7-13.7,36.7-23.9,54.8c-14,24.5-28.9,43.1-43.3,58.2
		c-14.4,15-27.9,26.4-40.1,35.5c-24.4,18.2-42.8,28.2-55.1,34.9c1.6-2.2,2.6-4.4,3-6.4C489.7,278.2,489.6,276.2,488.5,274.9
		L488.5,274.9z M473.7,261c17.5-25.9,52.8-74.6,89.6-120c18.4-22.7,37.1-44.7,53.5-62.9c16.3-18.3,30.3-32.9,38.8-41.6
		c-6.4,9.7-17.5,26.3-31.6,46c-14.2,19.7-31.4,42.7-49.7,65.5c-36.4,45.7-76.7,91.1-98.7,114.4c-0.2-0.2-0.3-0.3-0.5-0.5
		C474.6,261.5,474.2,261.3,473.7,261L473.7,261z M476.4,263.6c21.2-17.8,46.3-38.8,69.8-61.3c23.5-22.4,45.3-46.7,61.8-69
		c19.8-26.5,34.7-53.3,43.7-73.4c-6.2,16.7-15.7,37.9-28.3,59.6c-12.7,21.9-28.7,44.2-46.2,64.4c-35.2,40.7-76.4,73-101.4,89
		C477.3,269.4,477.6,265.9,476.4,263.6L476.4,263.6z M463,264.2c4.9-13.9,13.2-32.6,24.1-53.3c10.9-20.8,24.7-43.5,40.9-65.3
		c16.1-21.8,34.6-42.4,53.3-59.6c18.7-17.3,37.4-31.1,52.5-40.8c-17.7,13.1-40.5,33.2-62.2,58.4c-18.3,21-37.4,47.5-54.3,75.5
		c-17,27.9-32.1,56.9-45,81.5C469.4,260.4,466.2,261.5,463,264.2L463,264.2z M481,172.3c8.3-15.1,17.9-29.8,28.6-43.4
		c5.3-6.7,10.9-13.3,16.8-19.5c5.6-6,11.5-11.7,17.6-17.2c15.6-14,32.2-25.7,48.3-35c16-9.2,31.5-16.1,43.8-20.6
		c-11.4,5.2-25.5,12.7-40.3,22.5c-14.7,9.7-30.2,22.1-44.4,36.2c-20.8,20.3-40.9,46.6-56.6,74.4c-15.9,27.8-27.7,56.9-36.2,81.1
		c-1.8-0.4-3.7,0-5.7,1.1c-2,1.2-4,3-5.8,5.4C453.8,233.3,464.5,202.5,481,172.3z M429.6,240.8c2.2-18.1,4.9-36.8,10.6-56.3
		c5.7-19.5,14.3-39.5,28.5-59.4c13.4-18.6,30.9-35.2,51.1-48.4c10.2-6.8,20.8-12.4,32-17.6c11.1-4.9,22.7-9.4,34.1-12.9
		c8.2-2.6,16.4-4.9,24.2-6.7c-12.2,4.3-25.8,10.4-39.2,17.7c-13.6,7.5-27,16.4-39.7,26.8c-12.1,9.8-24,21.5-34.6,34.3
		c-10.7,12.8-20.2,27-28.1,41.4c-16,29.1-25.4,59.6-30.6,84.7c-2.4,1.4-4.5,4-6.2,7.4C432.1,247.2,431.4,243.4,429.6,240.8
		L429.6,240.8z M504,312.3l-9.5,0.5c0.4-0.8,0.5-1.6,0.3-2.3c-1-2.2-5.4-2.1-9.8,0c-2,1-3.7,2.2-4.9,3.3c-2.7,0.3-5.1,0.5-7.8,0.9
		c1.9-1.5,3.9-2.8,6-3.9l-0.5-0.9c-3.8,2-7.6,3.3-10.4,3.8c-3,0.6-5.1,0.4-5.8-0.8c-0.9-1.1,0-3.2,1.7-5.6c1.7-2.4,4.4-5.3,7.9-7.9
		l-0.6-0.8c-6.9,5.1-13.9,7.6-15.7,5.6c-0.9-1.1-0.5-3.2,0.8-5.9c1.3-2.7,3.6-6,6.5-9.1c0,0-0.7-0.7-0.7-0.7c-3,3.1-6.2,5.5-8.8,7
		c-2.6,1.4-4.7,1.9-5.8,1c-1-0.9-1.1-2.7-0.4-5.4c0.7-2.6,2.1-5.9,4.2-9.2l1-1.4l-0.9-0.6l-0.9,1.4c-2.3,3.1-4.9,5.6-7,7.2
		c-2.2,1.6-4,2.3-5.2,1.5c-1.3-0.6-1.6-2.8-1.2-5.8c0.4-2.9,1.4-6.7,3.2-10.5l0.1-0.2l-0.9-0.4l-0.1,0.2
		c-3.7,7.6-8.8,12.9-11.3,11.9c-2.5-1.1-2.8-8.3-0.4-16.7c0,0-0.9-0.3-0.9-0.3c-0.8,2.7-1.8,5.3-3.2,7.8c-0.2-2.8-0.5-5.6-0.8-8.5
		c1.1-1.4,2.1-3.5,2.7-6c0.6-2.4,0.7-4.7,0.4-6.5c-0.4-1.7-1.2-2.9-2.3-3.1c-0.9-0.2-1.8,0.2-2.6,1.1c-0.5-3-0.9-5.9-1.4-8.9
		c1.8-2.6,4.2-4.2,6.5-3.6c1.1,0.2,2.1,0.9,2.9,1.9c0.8,1,1.3,2.4,1.6,4c0.7,3.1,0.4,7.1-0.8,11.2c0,0,1.1,0.3,1.1,0.3
		c2.3-8.2,8-14.1,12.3-12.3c4.3,1.7,4.8,9.5,1.1,17.3l-0.1,0.2l1,0.5l0.1-0.2c1.9-3.8,4.3-6.9,6.9-8.8c2.5-1.8,5.2-2.3,7.2-1.2
		c1.8,1.2,2.7,3.4,2.6,6.3c-0.2,2.9-1.4,6.3-3.4,9.7l-1,1.4l1,0.7l0.9-1.4c0.9-1.2,1.9-2.3,3-3.3l0.1,0l0-0.1
		c4-3.7,8.8-5.2,11.4-2.9c2.6,2.1,2.3,6.8-0.4,11.4l-0.1,0.2l0,0c-1,1.8-2.4,3.6-4,5.3c0,0,0.8,0.8,0.8,0.8c3-3.1,6.3-5.3,9.3-6.3
		c3.1-1,5.7-0.7,7.3,1c3.1,3.5-0.2,10.7-7.1,15.9l0.6,0.9c3.4-2.6,7.1-4.3,10.2-4.8c3.2-0.5,5.7,0.3,7,2.2c1.2,2,0.7,4.7-1,7.3
		c-1.8,2.7-4.9,5.3-8.7,7.3l0.5,1c3.8-2,7.7-3.1,10.9-3c3.1,0.1,5.7,1.2,6.5,3.3C506.1,308,505.6,310.2,504,312.3L504,312.3z
		 M462.9,316.2c-2.2-0.5-5.6,0.2-9.5,2.1l-0.8,0.2c5-4,7.7-8.4,6.1-10.4c-1.6-2-6.6-0.6-12.2,3.5c2.3-2.5,4-5,4.9-7.1
		c0.8-2,0.8-3.7-0.1-4.7c-1-0.8-2.7-0.8-4.7,0.1c-2.1,1-4.5,2.8-6.9,5.2c1.9-2.9,3.2-5.6,3.6-7.8c0.5-2.2,0.3-4-0.8-4.6
		c-2.1-1.6-6.5,1.5-10.4,6.8c2.6-6,3-11.4,0.6-12.4c-2.4-1.1-6.2,2.5-9.3,8.6c1.4-5.3,1.4-9.9,0-11.8c-0.1-1.9-0.1-4-0.3-5.9
		c0.6-1.1,1.2-2.2,1.7-3.3c-0.9,6.9-0.4,12,1.8,12.9c2.2,0.9,6.1-2.7,9.9-8.3c-1,3.3-1.5,6.2-1.6,8.5c-0.1,2.4,0.3,3.9,1.4,4.5
		c1,0.7,2.6,0.2,4.5-0.9c1.9-1.1,4.1-3,6.4-5.5c-1.4,3-2.4,5.8-2.8,8c-0.4,2.2-0.2,3.7,0.7,4.6c1.9,1.5,6.6-0.6,12.1-4.9
		c-4,5.7-5.9,10.5-4.3,12.3c0.9,0.8,2.4,1,4.6,0.4c2.3-0.6,5-1.7,8-3.3c-2.4,2.4-4.3,4.8-5.3,6.8c-1.1,2-1.6,3.6-0.9,4.6
		c0.6,1,2.2,1.4,4.5,1.2c2.2-0.2,5.1-0.8,8.4-2c-0.7,0.5-1.3,1-2,1.6C467.8,315.4,465.4,315.8,462.9,316.2L462.9,316.2z
		 M450.9,318.9c-1.9,0.5-3.7,1.1-5.6,1.6c1.8-1.7,2.7-3.3,2.2-4c-0.7-1.1-4.6,0.7-8.3,3.9c-1.5,1.2-2.9,2.6-4.2,4
		c-1.8,0.8-3.4,1.5-5.1,2.4c1.2-1.2,2.4-2.4,3.7-3.5l-0.3-0.3c-2.3,2.1-4.7,4-7.2,5.9c-1.7,1-3.6,2.2-5.3,3.3c-0.2,0-0.3,0-0.4-0.1
		c-0.5-0.3,0.5-2,2-4.4c1.5-2.4,3.7-5.6,6.5-9l-0.4-0.3c-5.4,6.6-10.5,11.6-11.3,11.1c-0.1-0.1-0.2-0.4-0.1-0.8
		c0.6-1.6,1.1-3,1.6-4.6c1.2-2.7,2.5-5.3,3.9-7.8l0.9-1.5c0,0-0.4-0.3-0.5-0.3l-0.8,1.5c-0.7,1.1-1.4,2.3-2.1,3.4
		c0.5-1.8,0.9-3.8,1.3-5.7c1-1.3,2.2-3.1,3.3-5.2c2.3-4.4,3.2-8.4,2-9c-0.8-0.5-2.3,1.1-3.8,3.5c0.2-1.9,0.3-3.9,0.4-5.8
		c1.4-2.9,2.9-5.1,4.4-6.6c1.5-1.4,2.9-2.2,3.9-1.6c2.5,1.1,1.3,7.7-2.4,14.5l-0.9,1.5c0,0,0.6,0.3,0.6,0.3l0.8-1.5
		c4-6.6,9.1-10.9,11.2-9.3c2.4,1.7-0.2,8.5-5.7,15.2l0.5,0.4c2.7-3.3,5.5-6.1,8.1-7.7c2.5-1.6,4.5-2,5.6-1.1c0.9,1,0.6,3.1-0.8,5.7
		c-1.5,2.6-4.1,5.6-7.3,8.5l0.4,0.4c6.4-5.8,13.1-8.8,14.8-6.5C458.1,311.3,455.6,315.2,450.9,318.9L450.9,318.9z M428.8,327.5
		L428.8,327.5L428.8,327.5L428.8,327.5L428.8,327.5z M418.9,333.8c-1.2,0.9-2.4,1.8-3.6,2.8c-1.2,1-2.3,2-3.4,3.1
		c0.8-1.3,1.5-2.6,2.2-3.9c0.7-1.3,1.4-2.8,2-4.1c0.8,0.2,4.3-3.2,8.7-7.9c-1.8,2.6-3.3,4.9-4.4,6.6
		C419.4,332,418.7,333.3,418.9,333.8L418.9,333.8z M419.9,320.9l0.2-0.3l-0.2,0.5L419.9,320.9L419.9,320.9z M422.4,274.5
		c1,11.9,1.1,23.7-0.5,35c-1.7,11.3-5,21.9-10.7,31l-0.1,0.1l0.1-0.1c15.4-15.1,37.9-22.4,61.6-25.3c23.6-2.9,48.5-2,73.1-5
		c16.9-2.1,33-6.1,47.8-13.5c7.6-3.8,14.7-8.3,21.3-13.6c6.8-5.4,12.9-11.6,18.8-18.7c5.8-7.1,10.9-15,15.7-23.7
		c4.5-8.6,8.6-18.1,11.8-28c3.3-10,5.7-20.4,7.7-31.3c1.7-10.7,3-22,3.4-33.1c2.3-41.9-5.5-84.1-7.8-116c-0.2-3-0.3-4.8-0.3-5l0,0v0
		h0l-0.1-1.6l-1.6,0.3c-0.1,0-1.7,0.3-4.6,0.7c-7.9,1.2-16.5,2.2-25.5,3c-9.3,1-18.8,1.9-28.5,2.9c-19.7,2.3-40.4,5.5-60.5,10.8
		c-21.5,5.7-42.3,13.8-60.2,24.3c-18,10.5-33.3,23.4-44.6,37.7c-11.4,14.4-19,29.9-23.1,46.2c-4.1,16.2-4.6,32.8-3.2,49.8
		C414.5,226.3,420.4,250.5,422.4,274.5L422.4,274.5z"/>
</g>
</svg>
